<?xml version="1.0" encoding="UTF-8" standalone="no"?>
<!-- Created with Inkscape (http://www.inkscape.org/) -->

<svg
   xmlns:dc="http://purl.org/dc/elements/1.1/"
   xmlns:cc="http://creativecommons.org/ns#"
   xmlns:rdf="http://www.w3.org/1999/02/22-rdf-syntax-ns#"
   xmlns:svg="http://www.w3.org/2000/svg"
   xmlns="http://www.w3.org/2000/svg"
   xmlns:sodipodi="http://sodipodi.sourceforge.net/DTD/sodipodi-0.dtd"
   xmlns:inkscape="http://www.inkscape.org/namespaces/inkscape"
   version="1.1"
   id="svg2"
   xml:space="preserve"
   width="766.35864"
   height="631.82098"
   viewBox="0 0 766.35864 631.82098"
   sodipodi:docname="ubuntu_banner.svg"
   inkscape:version="0.92.4 (unknown)"
   inkscape:export-filename="/media/art/data/SourceCode/UBUCON/images/ubuntu_banner.png"
   inkscape:export-xdpi="96"
   inkscape:export-ydpi="96"><metadata
     id="metadata8"><rdf:RDF><cc:Work
         rdf:about=""><dc:format>image/svg+xml</dc:format><dc:type
           rdf:resource="http://purl.org/dc/dcmitype/StillImage" /><dc:title></dc:title></cc:Work></rdf:RDF></metadata><defs
     id="defs6"><clipPath
       clipPathUnits="userSpaceOnUse"
       id="clipPath20"><path
         d="M 0,0 H 612 V 792 H 0 Z"
         id="path18"
         inkscape:connector-curvature="0" /></clipPath><clipPath
       clipPathUnits="userSpaceOnUse"
       id="clipPath26"><path
         d="M 18,17 H 594 V 775 H 18 Z"
         id="path24"
         inkscape:connector-curvature="0" /></clipPath><clipPath
       clipPathUnits="userSpaceOnUse"
       id="clipPath30"><path
         d="M 0,0 H 612 V 792 H 0 Z"
         id="path28"
         inkscape:connector-curvature="0" /></clipPath><clipPath
       clipPathUnits="userSpaceOnUse"
       id="clipPath34"><path
         d="m 202.927,376.715 c 0,-46.31 29.524,-85.692 70.711,-100.244 v 0 c -0.975,1.671 -0.331,4.434 1.766,4.735 v 0 c 10.009,1.432 20.107,0.939 30.169,1.602 v 0 c 8.706,0.573 17.45,1.196 25.995,3.067 v 0 c 8.43,1.843 16.096,5.008 22.509,11 v 0 c 5.575,5.208 9.903,11.526 14.047,17.918 v 0 c -0.683,-0.357 -1.361,-0.735 -2.039,-1.137 v 0 c -5.406,-3.208 -10.644,-6.654 -16.102,-9.781 v 0 c -4.478,-2.567 -8.88,-5.256 -13.608,-7.338 v 0 c -3.926,-1.727 -9.024,-3.873 -13.14,-1.576 v 0 c -1.384,0.774 -2.028,2.913 -1.108,4.287 v 0 c 2.828,4.219 7.183,6.403 10.547,10.037 v 0 c 3.913,4.225 7.243,8.96 11.238,13.109 v 0 c 0.462,0.481 1.051,0.731 1.665,0.804 v 0 c 1.753,2.556 3.468,5.148 5.346,7.587 v 0 c 4.59,5.965 9.07,11.993 14.535,17.177 v 0 c 2.103,1.996 4.297,3.819 6.603,5.456 v 0 c 4.675,3.575 9.965,6.392 15.292,8.702 v 0 c 8.52,3.692 17.741,6.441 27.048,6.982 v 0 c 0.18,2.514 0.279,5.052 0.279,7.613 v 0 c 0,58.681 -47.403,106.252 -105.877,106.252 v 0 c -58.474,0 -105.876,-47.571 -105.876,-106.252"
         id="path32"
         inkscape:connector-curvature="0" /></clipPath><clipPath
       clipPathUnits="userSpaceOnUse"
       id="clipPath38"><path
         d="M 0,0 H 612 V 792 H 0 Z"
         id="path36"
         inkscape:connector-curvature="0" /></clipPath><radialGradient
       fx="0"
       fy="0"
       cx="0"
       cy="0"
       r="1"
       gradientUnits="userSpaceOnUse"
       gradientTransform="matrix(2.460966,-124.2093,126.2226,2.500876,303.625,432.75)"
       spreadMethod="pad"
       id="radialGradient44"><stop
         style="stop-opacity:1;stop-color:#f0efe1"
         offset="0"
         id="stop40" /><stop
         style="stop-opacity:1;stop-color:#f0efe1"
         offset="1"
         id="stop42" /></radialGradient><clipPath
       clipPathUnits="userSpaceOnUse"
       id="clipPath48"><path
         d="m 202.927,376.715 c 0,-46.31 29.524,-85.692 70.711,-100.244 v 0 c -0.975,1.671 -0.331,4.434 1.766,4.735 v 0 c 10.009,1.432 20.107,0.939 30.169,1.602 v 0 c 8.706,0.573 17.45,1.196 25.995,3.067 v 0 c 8.43,1.843 16.096,5.008 22.509,11 v 0 c 5.575,5.208 9.903,11.526 14.047,17.918 v 0 c -0.683,-0.357 -1.361,-0.735 -2.039,-1.137 v 0 c -5.406,-3.208 -10.644,-6.654 -16.102,-9.781 v 0 c -4.478,-2.567 -8.88,-5.256 -13.608,-7.338 v 0 c -3.926,-1.727 -9.024,-3.873 -13.14,-1.576 v 0 c -1.384,0.774 -2.028,2.913 -1.108,4.287 v 0 c 2.828,4.219 7.183,6.403 10.547,10.037 v 0 c 3.913,4.225 7.243,8.96 11.238,13.109 v 0 c 0.462,0.481 1.051,0.731 1.665,0.804 v 0 c 1.753,2.556 3.468,5.148 5.346,7.587 v 0 c 4.59,5.965 9.07,11.993 14.535,17.177 v 0 c 2.103,1.996 4.297,3.819 6.603,5.456 v 0 c 4.675,3.575 9.965,6.392 15.292,8.702 v 0 c 8.52,3.692 17.741,6.441 27.048,6.982 v 0 c 0.18,2.514 0.279,5.052 0.279,7.613 v 0 c 0,58.681 -47.403,106.252 -105.877,106.252 v 0 c -58.474,0 -105.876,-47.571 -105.876,-106.252"
         id="path46"
         inkscape:connector-curvature="0" /></clipPath><clipPath
       clipPathUnits="userSpaceOnUse"
       id="clipPath52"><path
         d="M 0,0 H 612 V 792 H 0 Z"
         id="path50"
         inkscape:connector-curvature="0" /></clipPath><radialGradient
       fx="0"
       fy="0"
       cx="0"
       cy="0"
       r="1"
       gradientUnits="userSpaceOnUse"
       gradientTransform="matrix(2.460966,-124.2093,126.2226,2.500876,303.625,432.75)"
       spreadMethod="pad"
       id="radialGradient58"><stop
         style="stop-opacity:1;stop-color:#ffffff"
         offset="0"
         id="stop54" /><stop
         style="stop-opacity:1;stop-color:#ffffff"
         offset="1"
         id="stop56" /></radialGradient><clipPath
       clipPathUnits="userSpaceOnUse"
       id="clipPath62"><path
         d="M 0,792 H 612 V 0 H 0 Z"
         id="path60"
         inkscape:connector-curvature="0" /></clipPath><clipPath
       clipPathUnits="userSpaceOnUse"
       id="clipPath66"><path
         d="M 0,0 H 612 V 792 H 0 Z"
         id="path64"
         inkscape:connector-curvature="0" /></clipPath><clipPath
       clipPathUnits="userSpaceOnUse"
       id="clipPath70"><path
         d="M 0,0 H 612 V 792 H 0 Z"
         id="path68"
         inkscape:connector-curvature="0" /></clipPath></defs><sodipodi:namedview
     pagecolor="#ffffff"
     bordercolor="#666666"
     borderopacity="1"
     objecttolerance="10"
     gridtolerance="10"
     guidetolerance="10"
     inkscape:pageopacity="0"
     inkscape:pageshadow="2"
     inkscape:window-width="1366"
     inkscape:window-height="703"
     id="namedview4"
     showgrid="false"
     inkscape:zoom="0.38251043"
     inkscape:cx="725.93585"
     inkscape:cy="310.9493"
     inkscape:window-x="0"
     inkscape:window-y="0"
     inkscape:window-maximized="1"
     inkscape:current-layer="g198"
     fit-margin-top="0"
     fit-margin-left="0"
     fit-margin-right="0"
     fit-margin-bottom="0" /><g
     id="g10"
     inkscape:groupmode="layer"
     inkscape:label="ubuntu_media_kit_v2(1)"
     transform="matrix(1.3333333,0,0,-1.3333333,-24.607999,858.21916)"><g
       id="g12" /><g
       clip-path="url(#clipPath20)"
       id="g16"><g
         id="g22" /><g
         id="g198"><g
           id="g72" /><g
           id="g78"
           transform="matrix(1,0,0,0.62663165,0,158.61828)"><g
             clip-path="url(#clipPath30)"
             id="g76"><path
               d="M 593.225,17.842 H 18.456 v 756.211 h 574.769 z"
               style="fill:#243464;fill-opacity:1;fill-rule:nonzero;stroke:none"
               id="path74"
               inkscape:connector-curvature="0" /></g></g><g
           id="g88"><g
             clip-path="url(#clipPath34)"
             id="g86"><g
               clip-path="url(#clipPath38)"
               id="g84"><g
                 id="g82"><path
                   d="M 0,0 H 612 V 792 H 0 Z"
                   style="fill:url(#radialGradient44);stroke:none"
                   id="path80"
                   inkscape:connector-curvature="0" /></g></g></g></g><g
           id="g98"><g
             clip-path="url(#clipPath48)"
             id="g96"><g
               clip-path="url(#clipPath52)"
               id="g94"><g
                 id="g92"><path
                   d="M 0,0 H 612 V 792 H 0 Z"
                   style="fill:#a05a2c;stroke:none"
                   id="path90"
                   inkscape:connector-curvature="0" /></g></g></g></g><path
           inkscape:connector-curvature="0"
           id="path100"
           style="fill:#000000;fill-opacity:1;fill-rule:nonzero;stroke:none"
           d="m 271.7529,280.2988 c -0.235,2.844 4.687,2.608 4.687,2.608 10.152,-0.217 20.013,0.168 28.808,0.807 -19.903,1.539 -22.369,3.529 -22.369,3.529 -5.849,3.699 -8.285,5.177 -8.285,5.177 0,0 -17.06,15.285 -20.229,18.49 -3.167,3.203 0.732,4.93 0.732,4.93 3.412,-0.247 20.471,-14.793 34.362,-21.201 13.892,-6.409 20.21,3.914 17.529,6.132 -2.679,2.218 -20.697,13.096 -32.151,30.352 -11.454,17.256 -29,27.612 -29,27.612 -16.33,10.599 -49.474,13.804 -49.474,13.804 l -0.243,-0.74 c 3.656,-50.045 51.179,-84.557 51.179,-84.557 28.736,-18.922 58.297,-19.233 78.88,-15.785 -30.689,-2.57 -54.426,8.842 -54.426,8.842" /><g
           id="g104"
           transform="translate(316.8838,269.4551)"><path
             inkscape:connector-curvature="0"
             id="path102"
             style="fill:#ffffff;fill-opacity:1;fill-rule:nonzero;stroke:#231f20;stroke-width:3;stroke-linecap:butt;stroke-linejoin:miter;stroke-miterlimit:10;stroke-dasharray:none;stroke-opacity:1"
             d="m 0,0 c -4.686,0 -9.041,0.293 -12.969,0.737 -19.324,2.201 -32.315,8.367 -32.858,8.625 -0.521,0.251 -0.872,0.763 -0.92,1.345 -0.086,1.061 0.24,2.014 0.948,2.753 1.642,1.722 4.815,1.644 5.432,1.629 49.372,-1.071 59.171,4.317 62.375,4.897 4.676,2.957 7.043,4.41 7.6,4.75 1.444,1.293 16.423,14.733 19.269,17.612 0.582,0.589 0.751,1.008 0.716,1.207 -0.036,0.203 -0.272,0.444 -0.527,0.633 C 47.489,43.577 43.231,40.609 39.438,37.963 32.771,33.311 24.473,27.523 16.948,24.051 6.444,19.205 1.203,22.756 -0.759,24.836 c -1.972,2.091 -2.067,3.937 -0.272,5.422 l 3.688,2.681 c 10.659,8.715 19.52,18.34 26.336,28.606 10.966,16.523 27.333,26.41 28.387,27.037 15.861,10.276 46.955,13.383 48.272,13.512 0.885,0.084 1.683,-0.575 1.768,-1.477 0,-0.003 0.002,-0.006 0.002,-0.009 0.172,-0.283 0.263,-0.622 0.235,-0.98 C 105.81,74.33 92.334,53.232 81.354,39.987 69.495,25.68 58.24,17.441 57.768,17.098 57.747,17.084 57.727,17.068 57.708,17.055 37.371,3.666 16.617,0.001 0,0" /></g><path
           inkscape:connector-curvature="0"
           id="path106"
           style="fill:#ffffff;fill-opacity:1;fill-rule:nonzero;stroke:none"
           d="m 131.6577,466.9111 v 50.86 c 4.941,7.524 10.243,14.6 15.861,21.232 v -51.117 c 0.001,-5.937 0.351,-9.608 1.061,-11.025 0.711,-1.417 1.928,-1.13 3.69,0.813 1.74,1.916 3.008,4.405 3.774,7.513 0.766,3.105 1.152,7.557 1.152,13.366 v 51.118 c 5.959,6.136 12.212,11.827 18.716,17.074 v -50.861 c 0,-6.663 -0.255,-12.356 -0.759,-17.078 -0.507,-4.727 -1.313,-8.993 -2.412,-12.82 -2.147,-7.658 -5.052,-14.646 -8.623,-21.112 -3.569,-6.468 -7.553,-11.998 -11.848,-16.73 -4.316,-4.76 -7.978,-7.668 -11.081,-8.581 -3.102,-0.915 -5.444,0.244 -7.137,3.629 -0.845,1.626 -1.451,4.282 -1.829,7.985 -0.378,3.698 -0.565,8.943 -0.565,15.734" /><path
           inkscape:connector-curvature="0"
           id="path108"
           style="fill:#ffffff;fill-opacity:1;fill-rule:nonzero;stroke:none"
           d="m 205.833,531.2539 v -14.99 c 1.195,0.662 2.396,1.309 3.602,1.946 2.165,1.14 3.845,2.63 5.023,4.515 1.179,1.882 1.77,4.01 1.77,6.404 0,2.432 -0.591,4.008 -1.77,4.709 -1.178,0.701 -2.858,0.502 -5.023,-0.639 -1.206,-0.635 -2.407,-1.283 -3.602,-1.945 m 0,33.31 v -13.132 c 0.937,0.517 1.879,1.029 2.821,1.531 1.751,0.933 3.095,2.184 4.02,3.784 0.926,1.596 1.39,3.458 1.39,5.595 0,2.135 -0.464,3.528 -1.39,4.173 -0.925,0.642 -2.269,0.512 -4.02,-0.419 -0.942,-0.503 -1.884,-1.012 -2.821,-1.532 m -19.598,-83.79 v 93.78 c 9,6.376 18.407,11.963 28.119,16.758 6.238,3.075 11.217,2.912 14.809,-0.149 3.594,-3.072 5.415,-8.696 5.413,-16.718 0,-5.126 -0.858,-9.696 -2.562,-13.744 -1.706,-4.051 -4.114,-7.206 -7.198,-9.547 4.217,0.473 7.403,-0.817 9.5,-3.708 2.1,-2.899 3.157,-7.468 3.157,-13.659 0.002,-8.761 -2.009,-16.043 -5.976,-22.032 -3.961,-6.003 -9.769,-10.587 -17.226,-14.266 -9.682,-4.785 -19.061,-10.358 -28.036,-16.715" /><path
           inkscape:connector-curvature="0"
           id="path110"
           style="fill:#ffffff;fill-opacity:1;fill-rule:nonzero;stroke:none"
           d="m 245.0107,552.6846 v 50.862 c 7.678,2.387 15.471,4.326 23.336,5.822 v -51.118 c 0,-5.938 0.492,-9.931 1.48,-11.992 0.989,-2.062 2.681,-2.877 5.084,-2.496 2.372,0.373 4.075,1.759 5.1,4.202 1.023,2.442 1.537,6.562 1.537,12.371 v 51.119 c 7.932,0.999 15.909,1.554 23.895,1.664 v -50.863 c 0,-6.661 -0.312,-12.153 -0.933,-16.478 -0.624,-4.324 -1.618,-7.952 -2.983,-10.9 -2.671,-5.939 -6.312,-10.583 -10.914,-14.08 -4.6,-3.5 -9.844,-5.641 -15.702,-6.566 -5.889,-0.932 -11.081,-0.442 -15.591,1.614 -4.51,2.053 -8.041,5.557 -10.621,10.66 -1.292,2.485 -2.228,5.766 -2.812,9.859 -0.585,4.089 -0.876,9.53 -0.876,16.32" /><path
           inkscape:connector-curvature="0"
           id="path112"
           style="fill:#ffffff;fill-opacity:1;fill-rule:nonzero;stroke:none"
           d="m 317.8716,519.1489 v 93.781 c 7.826,-0.346 15.637,-1.119 23.389,-2.321 6.838,-17.415 13.632,-35.163 20.355,-53.245 -0.265,2.245 -0.452,4.706 -0.555,7.381 -0.105,2.674 -0.155,6.145 -0.155,10.416 v 31.451 c 7.494,-1.895 14.903,-4.206 22.185,-6.929 v -93.781 c -7.47,2.793 -15.071,5.152 -22.763,7.075 -6.655,17.892 -13.382,35.459 -20.148,52.7 0.24,-2.13 0.421,-4.408 0.542,-6.84 0.119,-2.43 0.179,-5.141 0.179,-8.129 v -33.824 c -7.634,1.171 -15.323,1.925 -23.029,2.265" /><path
           inkscape:connector-curvature="0"
           id="path114"
           style="fill:#ffffff;fill-opacity:1;fill-rule:nonzero;stroke:none"
           d="m 402.4902,497.5103 v 63.098 c -4.06,2.004 -8.171,3.873 -12.331,5.602 v 30.683 c 15.784,-6.562 30.904,-15.115 44.956,-25.654 v -30.685 c -3.702,2.778 -7.479,5.417 -11.323,7.918 v -63.097 c -6.899,4.49 -14.016,8.535 -21.302,12.135" /><path
           inkscape:connector-curvature="0"
           id="path116"
           style="fill:#ffffff;fill-opacity:1;fill-rule:nonzero;stroke:none"
           d="m 440.8921,515.8833 v 50.862 c 6.504,-5.247 12.756,-10.938 18.715,-17.074 v -51.119 c 0,-5.936 0.377,-10.408 1.118,-13.427 0.744,-3.019 2.014,-5.473 3.776,-7.415 1.738,-1.917 2.958,-2.173 3.69,-0.716 0.732,1.456 1.095,5.081 1.095,10.891 v 51.118 c 5.616,-6.633 10.918,-13.708 15.858,-21.232 v -50.86 c 0,-6.662 -0.192,-11.857 -0.579,-15.586 -0.387,-3.731 -1.006,-6.409 -1.871,-8.051 -1.695,-3.383 -4.036,-4.543 -7.14,-3.632 -3.106,0.911 -6.759,3.804 -11.053,8.537 -4.319,4.757 -8.317,10.295 -11.886,16.762 -3.572,6.463 -6.479,13.45 -8.628,21.106 -1.073,3.762 -1.863,7.972 -2.353,12.644 -0.495,4.673 -0.742,10.4 -0.742,17.192" /><path
           inkscape:connector-curvature="0"
           id="path118"
           style="fill:#828e37;fill-opacity:1;fill-rule:evenodd;stroke:none"
           d="m 419.479,450.6748 c -23.753,34.798 -63.891,56.792 -110.121,56.792 -46.136,0 -86.766,-22.859 -110.539,-57.539 5.382,-2.654 10.655,-6.174 13.699,-11.004 17.303,33.553 54.161,56.724 96.84,56.724 41.834,0 77.502,-21.307 95.218,-53.786 4.105,4.354 8.905,7.846 14.903,8.813" /><path
           inkscape:connector-curvature="0"
           id="path120"
           style="fill:#789947;fill-opacity:1;fill-rule:nonzero;stroke:none"
           d="m 249.1489,402.3071 c 3.433,0.779 3.805,-1.444 6.928,-0.968 -0.063,2.783 -7.244,3.539 -6.928,0.968" /><path
           inkscape:connector-curvature="0"
           id="path122"
           style="fill:#789947;fill-opacity:1;fill-rule:nonzero;stroke:none"
           d="m 292.7026,471.1475 c -4.319,-1.145 -6.121,1.272 -7.919,-1.937 2.992,0.301 7.698,-1.077 7.919,1.937" /><path
           inkscape:connector-curvature="0"
           id="path124"
           style="fill:#789947;fill-opacity:1;fill-rule:nonzero;stroke:none"
           d="m 261.0269,396.4902 c 2.194,-0.717 4.078,3.574 1.98,3.878 -0.427,-1.521 -3.114,-0.828 -1.98,-3.878" /><path
           inkscape:connector-curvature="0"
           id="path126"
           style="fill:#789947;fill-opacity:1;fill-rule:nonzero;stroke:none"
           d="m 332.2979,459.5127 c 1.45,0.844 3.138,1.452 2.969,3.879 -3.505,0.422 -5.632,1.491 -7.917,-0.969 2.332,-0.301 1.842,-3.367 4.948,-2.91" /><path
           inkscape:connector-curvature="0"
           id="path128"
           style="fill:#789947;fill-opacity:1;fill-rule:nonzero;stroke:none"
           d="m 345.168,472.1182 c -1.318,1.259 -3.684,1.278 -3.96,-0.971 1.314,-1.258 3.683,-1.277 3.96,0.971" /><path
           inkscape:connector-curvature="0"
           id="path130"
           style="fill:#000000;fill-opacity:1;fill-rule:nonzero;stroke:none"
           d="m 518.627,419.4951 c -52.899,17.37 -82.903,31.056 -101.588,26.319 0,0 -12.619,-3.796 -15.116,-19.638 3.958,-9.185 6.588,-19.143 7.585,-29.686 0.49,-5.142 0.434,-10.576 0,-15.512 -0.183,-2.115 -0.436,-4.215 -0.751,-6.301 4.952,4.164 8.671,11.293 4.993,21.396 0,0 -3.686,9.735 -1.448,14.605 0,0 2.632,-4.21 4.341,-11.316 1.712,-7.106 5.922,-34.741 38.557,-19.608 0,0 -16.579,7.894 -25.396,20.001 -8.817,12.108 -13.062,15.79 -15.695,16.842 l 0.43,1.976 c 0,0 9.211,-6.448 16.713,-15.395 7.499,-8.95 28.949,-31.977 46.845,-19.344 0,0 -18.292,2.236 -36.056,19.869 0,0 -19.878,15.45 -26.589,17.817 0,0 0.402,1.661 1.324,2.187 0,0 15.791,-8.554 24.739,-15.134 8.948,-6.581 34.346,-31.714 53.82,-20.001 0,0 -26.975,4.604 -42.108,18.947 0,0 -21.845,15.265 -34.346,18.686 0,0 0.395,1.186 2.37,1.974 0,0 15.789,-6.052 24.868,-11.974 9.081,-5.923 48.953,-34.741 68.822,-21.714 0,0 -28.817,4.739 -45.793,16.976 0,0 -30.923,17.897 -43.686,18.818 l 2.763,1.447 c 0,0 14.211,-3.683 32.503,-11.58 18.291,-7.894 64.348,-36.187 88.824,-18.552 0,0 -38.951,1.051 -67.508,16.581 0,0 -31.845,12.894 -46.713,14.473 0,0 8.288,3.684 54.741,-13.817 46.451,-17.502 88.036,-22.501 94.878,-2.763 0,0 -13.423,-13.949 -66.323,3.421" /><path
           inkscape:connector-curvature="0"
           id="path132"
           style="fill:#000000;fill-opacity:1;fill-rule:nonzero;stroke:none"
           d="m 212.6011,419.6689 c 0.433,21.344 -15.528,26.146 -15.528,26.146 -18.686,4.736 -48.689,-8.95 -101.589,-26.32 -52.901,-17.369 -66.322,-3.421 -66.322,-3.421 6.841,-19.738 48.426,-14.739 94.877,2.763 46.452,17.502 54.741,13.817 54.741,13.817 -23.488,-4.077 -45.823,-15.797 -45.823,-15.797 -28.555,-15.528 -68.397,-15.257 -68.397,-15.257 24.475,-17.634 70.533,10.658 88.824,18.552 18.291,7.897 32.503,11.58 32.503,11.58 l 2.762,-1.447 c -12.763,-0.921 -43.687,-18.818 -43.687,-18.818 -16.975,-12.237 -45.794,-16.976 -45.794,-16.976 19.87,-13.027 59.743,15.792 68.823,21.714 9.08,5.922 24.87,11.974 24.87,11.974 1.974,-0.788 2.37,-1.974 2.37,-1.974 -12.502,-3.421 -34.347,-18.686 -34.347,-18.686 -15.132,-14.343 -42.108,-18.947 -42.108,-18.947 19.474,-11.713 44.871,13.42 53.82,20.001 8.948,6.58 24.741,15.134 24.741,15.134 0.92,-0.526 1.323,-2.186 1.323,-2.186 -6.712,-2.368 -26.59,-17.817 -26.59,-17.817 -17.765,-17.634 -36.057,-19.87 -36.057,-19.87 17.896,-12.633 39.347,10.395 46.847,19.344 7.501,8.948 16.713,15.395 16.713,15.395 l 0.428,-1.976 c -2.631,-1.052 -6.877,-4.734 -15.692,-16.842 -8.818,-12.107 -25.398,-20.001 -25.398,-20.001 32.634,-15.133 36.847,12.502 38.557,19.608 1.71,7.106 4.341,11.316 4.341,11.316 2.237,-4.87 -1.447,-14.605 -1.447,-14.605 -4.827,-13.259 1.51,-18.255 8.233,-21.292 -0.002,0.01 -0.004,0.018 -0.006,0.029 1.448,-0.897 2.464,-1.057 4.354,-1.509 -1.966,11.952 -1.333,22.729 2.314,35.907 -1.421,3.506 -2.258,7.445 -2.336,11.281 -0.106,-0.273 -0.217,-0.545 -0.32,-0.82" /><path
           inkscape:connector-curvature="0"
           id="path134"
           style="fill:#789947;fill-opacity:1;fill-rule:nonzero;stroke:none"
           d="m 404.1533,397.6929 c -0.016,0.031 -0.035,0.062 -0.052,0.093 -0.325,-0.172 -0.644,-0.357 -0.956,-0.555 0.336,0.154 0.671,0.309 1.008,0.462" /><path
           inkscape:connector-curvature="0"
           id="path136"
           style="fill:#828e37;fill-opacity:1;fill-rule:nonzero;stroke:none"
           d="m 388.7231,425.5781 c -0.531,4.042 -7.927,5.313 -4.951,9.696 3.118,-2.439 5.985,-5.125 6.929,-9.696 -0.881,0.596 -1.771,1.172 -1.978,0 m -2.971,-32.966 c -2.285,2.937 -5.557,4.9 -5.94,9.695 1.675,-3.53 6.586,-3.891 5.94,-9.695 m -20.787,36.845 v 3.877 c 2.339,1.21 11.553,2.054 11.88,-3.877 -4.195,1.746 -6.227,0.204 -11.88,0 m 6.928,-11.636 c -6.944,-1.101 -12.9,2.845 -16.829,-0.969 -2.14,2.751 -5.902,3.914 -6.927,7.757 -5.321,-0.793 -8.112,1.965 -11.879,0 -0.718,2.966 1.706,2.851 0.991,5.816 4.036,-0.72 3.407,3.126 7.918,1.941 -1.85,-1.726 0.804,-2.466 0,-5.818 3.103,0.67 1.29,2.586 0.989,4.847 2.08,-1.195 3.86,-2.684 5.94,-3.878 -0.306,-3.841 -3.438,1.085 -2.969,-2.908 1.967,-2.795 4.745,1.74 5.937,2.908 -0.656,2.588 -2.973,3.55 -4.948,4.849 3.284,1.564 6.191,-5.545 8.909,-7.757 3.196,-0.868 1.391,3.162 2.971,3.878 2.13,-4.004 5.358,-7.799 9.897,-6.787 z m -25.737,29.088 c -1.219,0.423 -2.033,1.241 -1.979,2.909 1.216,-0.424 2.034,-1.242 1.979,-2.909 m 4.951,9.695 c 1.429,1.651 1.012,-6.708 4.947,-5.817 -1.544,-0.214 -3.444,-4.876 -3.958,-2.908 -3.612,-0.615 0.445,5.301 -0.989,8.725 m -49.495,15.514 c -2.38,2.216 -5.987,0.165 -7.92,-0.97 -0.364,-1.65 0.772,-1.828 1.981,-1.938 -5.468,-3.045 -6.223,-0.614 -11.879,-4.849 0.071,3.301 -2.912,3.613 -4.95,4.849 -3.415,-1.18 -5.232,-3.926 -7.919,-5.818 -6.523,2.588 -11.329,-0.994 -15.838,0.969 15.167,12.988 50.091,20.58 75.232,14.543 -6.706,-4.653 -22.308,1.82 -28.707,-6.786 m -2.971,-3.879 c 0.433,1.194 1.268,1.991 2.971,1.94 -0.432,-1.194 -1.268,-1.992 -2.971,-1.94 m 100.529,-73.04 c 1.251,0.751 2.602,1.401 3.975,2.032 0.312,0.198 0.631,0.383 0.955,0.555 -0.06,0.112 -0.119,0.225 -0.184,0.332 -0.021,0.033 -0.048,0.056 -0.074,0.088 -0.015,0.045 -0.035,0.09 -0.05,0.139 0.602,6.563 -0.703,9.834 -0.703,9.834 -1.745,7.264 -1.922,13.185 -1.166,17.997 -13.657,31.703 -43.184,54.184 -76.553,59.516 -11.133,1.778 -16.132,1.268 -21.282,0.962 -15.483,-0.92 -27.749,-4.863 -40.093,-10.658 -20.463,-9.607 -41.083,-29.512 -51.074,-55.507 0.078,-3.836 0.915,-7.775 2.336,-11.282 0.081,0.287 0.153,0.569 0.236,0.858 2.308,-2.569 0.563,-6.22 1.978,-7.758 0.651,0.195 2.095,1.999 1.96,3.083 -0.311,0.381 -0.63,0.661 -0.969,0.796 0.643,-0.072 0.916,-0.384 0.969,-0.796 2.272,-2.796 4.042,-11.294 8.928,-12.778 12.719,2.181 13.452,-10.758 24.748,-12.604 0.753,-5.585 -2.975,-6.782 -3.958,-10.664 0.747,-4.464 2.072,-8.366 3.885,-11.786 6.3,-4.57 16.57,-13.085 24.303,-24.736 4.15,-6.252 9.195,-11.64 14.034,-16.059 3.933,6.53 4.918,14.135 6.281,20.585 11.909,0.197 3.107,16.873 9.898,23.269 -2.431,12.161 -20.803,8.711 -23.756,20.361 -6.511,0.086 -9.81,3.318 -9.9,9.695 -2.111,0.455 -1.885,-1.386 -1.979,-2.908 -12.148,2.463 -12.148,-3.542 -22.766,-3.879 -2.765,4.428 0.8,9.626 -5.94,10.665 -1.413,4.221 3.382,4.459 0.99,6.788 -5.296,0.663 -3.676,-5.451 -8.91,-4.849 -4.146,12.947 6.389,16.431 16.829,16.484 0.717,-2.207 0.882,-4.954 1.979,-6.788 3.573,0.703 1.037,7.388 2.97,9.696 2.912,1.996 5.423,4.385 8.908,5.818 -0.305,5.509 8.9,7.377 11.879,12.605 h 6.93 c 2.421,2.286 -1.478,1.804 -0.99,4.847 2.477,0.805 3.887,2.656 6.929,2.908 -1.986,-1.974 -0.258,-2.582 0.99,-3.878 7.489,2.584 1.287,11.038 2.969,16.483 -4.826,-1.804 -4.555,0.404 -6.929,2.909 -5.805,-2.716 -8.945,-8.045 -12.868,-12.605 -1.581,2.007 -2.148,5.006 -4.95,5.818 3.886,4.366 7.336,6.922 12.868,5.817 4.233,2.318 6.692,6.376 11.879,7.757 -1.117,-1.814 -1.17,-4.671 -4.95,-3.878 0.186,-2.727 1.723,-4.131 4.95,-3.879 4.27,2.605 8.655,5.097 7.919,12.606 3.117,1.472 5.938,3.232 9.899,3.877 0.339,-6.295 -8.521,-10.854 -4.95,-18.422 4.569,-0.274 5.337,3.178 6.93,5.818 10.893,1.611 17.77,7.157 21.778,15.513 13.049,-1.437 22.081,-6.811 28.707,-14.543 -6.432,2.242 -8.059,3.177 -16.828,2.908 -3.581,-2.634 -4.286,-8.084 -8.91,-9.696 -1.393,-5.567 4.725,-3.775 2.971,-9.696 -1.6,0.274 -1.706,-0.917 -2.971,-0.97 -4.183,1.075 -4.97,5.475 -5.94,9.697 -3.222,-2.66 -4.969,-6.767 -6.928,-10.664 0.514,-3.385 5.948,-0.915 4.949,2.907 2.137,2.324 0.508,-4.679 -0.989,-4.847 h 2.968 c -5.412,-2.427 2.557,-5.438 0,-7.758 -2.44,-0.128 -4.769,-0.146 -5.938,0.971 -2.191,-2.837 -1.629,-3.349 -1.979,-8.727 -1.165,-3.478 9.005,-0.771 5.938,-2.908 -3.564,-0.308 -10.6,-10.623 -14.848,-16.484 -6.211,-8.566 -0.069,-24.874 7.919,-28.118 8.743,0.16 17.404,0.24 23.758,-1.938 0.867,-3.113 -2.569,-2.01 -2.97,-3.879 0.933,-6.731 6.811,-9.103 6.929,-15.513 0.061,-3.281 -2.985,-6.172 -2.969,-9.697 0.007,-1.975 0.273,-3.943 0.686,-5.908 10.075,11.635 21.194,18.498 22.876,19.503 3.849,2.485 8.536,4.565 13.473,6.291 4.665,4.684 10.219,10.37 11.469,19.868 -1.985,3.422 -2.964,0.461 -7.92,0.97 3.938,2.573 7.344,5.667 11.523,8.003 0.608,0.566 1.244,1.044 1.911,1.463 -1.373,-0.631 -2.724,-1.281 -3.975,-2.032" /><path
           inkscape:connector-curvature="0"
           id="path138"
           style="fill:#000000;fill-opacity:1;fill-rule:nonzero;stroke:none"
           d="m 409.5088,396.4902 c -0.999,10.543 -3.626,20.501 -7.585,29.686 -0.757,-4.812 -0.58,-10.733 1.165,-17.998 0,0 1.305,-3.271 0.703,-9.834 0.016,-0.048 0.035,-0.092 0.05,-0.139 0.025,-0.031 0.053,-0.054 0.075,-0.088 2.071,-3.454 2.696,-8.441 2.825,-12.429 0.13,-4.031 -1.73,-9.996 -2.776,-13.97 0.085,0.018 0.172,0.036 0.258,0.051 1.514,0.713 3.077,1.682 4.534,2.909 0.314,2.084 0.566,4.185 0.751,6.3 0.433,4.936 0.488,10.369 0,15.512" /><path
           inkscape:connector-curvature="0"
           id="path140"
           style="fill:#4c70b7;fill-opacity:1;fill-rule:evenodd;stroke:none"
           d="m 314.7842,248.7871 c -0.468,-0.012 -0.83,-0.259 -1.088,-0.738 -0.257,-0.479 -0.375,-1.13 -0.354,-1.951 0.021,-0.822 0.173,-1.465 0.453,-1.926 0.279,-0.463 0.656,-0.686 1.129,-0.672 0.468,0.012 0.832,0.256 1.089,0.733 0.256,0.476 0.375,1.122 0.354,1.945 -0.022,0.822 -0.175,1.464 -0.46,1.93 -0.284,0.466 -0.659,0.693 -1.123,0.679" /><path
           inkscape:connector-curvature="0"
           id="path142"
           style="fill:#4c70b7;fill-opacity:1;fill-rule:evenodd;stroke:none"
           d="m 275.4985,252.9873 c -0.456,0.108 -0.869,-0.037 -1.239,-0.435 -0.367,-0.399 -0.645,-0.998 -0.829,-1.797 -0.183,-0.802 -0.198,-1.458 -0.043,-1.978 0.155,-0.519 0.465,-0.832 0.923,-0.942 0.458,-0.109 0.87,0.035 1.238,0.43 0.368,0.395 0.644,0.993 0.828,1.791 0.184,0.801 0.197,1.461 0.039,1.985 -0.16,0.525 -0.466,0.84 -0.917,0.946" /><path
           inkscape:connector-curvature="0"
           id="path144"
           style="fill:#4c70b7;fill-opacity:1;fill-rule:evenodd;stroke:none"
           d="m 351.7637,254.876 c -0.354,0.295 -0.718,0.39 -1.092,0.286 -0.401,-0.109 -0.676,-0.364 -0.825,-0.763 -0.148,-0.399 -0.171,-0.942 -0.071,-1.629 l 2.829,0.778 c -0.207,0.591 -0.487,1.033 -0.841,1.328" /><path
           inkscape:connector-curvature="0"
           id="path146"
           style="fill:#4c70b7;fill-opacity:1;fill-rule:evenodd;stroke:none"
           d="m 422.3638,300.2568 c -0.456,0.042 -0.809,-0.087 -1.06,-0.386 -0.271,-0.322 -0.357,-0.687 -0.257,-1.101 0.1,-0.414 0.38,-0.876 0.844,-1.389 l 1.906,2.262 c -0.499,0.368 -0.976,0.573 -1.433,0.614" /><path
           inkscape:connector-curvature="0"
           id="path148"
           style="fill:#4c70b7;fill-opacity:1;fill-rule:evenodd;stroke:none"
           d="m 385.1489,267.7988 c -0.464,0.279 -0.9,0.307 -1.304,0.076 -0.409,-0.23 -0.619,-0.62 -0.63,-1.166 -0.01,-0.547 0.184,-1.178 0.577,-1.896 0.394,-0.718 0.819,-1.217 1.277,-1.494 0.458,-0.278 0.895,-0.301 1.309,-0.068 0.409,0.232 0.62,0.618 0.632,1.161 0.01,0.542 -0.18,1.173 -0.574,1.891 -0.394,0.719 -0.822,1.219 -1.287,1.496" /><path
           inkscape:connector-curvature="0"
           id="path150"
           style="fill:#4c70b7;fill-opacity:1;fill-rule:evenodd;stroke:none"
           d="m 402.0386,280.293 c -0.41,-0.324 -0.583,-0.778 -0.518,-1.356 0.068,-0.58 0.363,-1.21 0.889,-1.894 0.519,-0.675 1.048,-1.115 1.583,-1.316 0.539,-0.204 1.011,-0.143 1.42,0.178 0.409,0.326 0.584,0.776 0.522,1.355 -0.063,0.577 -0.354,1.205 -0.876,1.883 -0.519,0.675 -1.049,1.117 -1.592,1.325 -0.541,0.208 -1.017,0.15 -1.428,-0.175" /><path
           inkscape:connector-curvature="0"
           id="path152"
           style="fill:#4c70b7;fill-opacity:1;fill-rule:evenodd;stroke:none"
           d="m 246.3228,264.1865 c -0.377,0.179 -0.748,0.167 -1.115,-0.039 -0.37,-0.205 -0.735,-0.603 -1.098,-1.194 l 2.653,-1.268 c 0.219,0.587 0.288,1.107 0.207,1.565 -0.081,0.457 -0.296,0.769 -0.647,0.936" /><path
           inkscape:connector-curvature="0"
           id="path154"
           style="fill:#4c70b7;fill-opacity:1;fill-rule:evenodd;stroke:none"
           d="m 190.4248,310.002 c -0.573,-0.037 -1.209,-0.305 -1.908,-0.802 -0.693,-0.494 -1.151,-1.007 -1.378,-1.542 -0.226,-0.532 -0.191,-1.015 0.105,-1.443 0.299,-0.434 0.736,-0.631 1.307,-0.598 0.573,0.035 1.206,0.299 1.898,0.791 0.692,0.493 1.155,1.008 1.386,1.545 0.232,0.54 0.198,1.026 -0.101,1.458 -0.299,0.433 -0.735,0.63 -1.309,0.591" /><path
           inkscape:connector-curvature="0"
           id="path156"
           style="fill:#4c70b7;fill-opacity:1;fill-rule:evenodd;stroke:none"
           d="m 202.8193,294.3281 c -0.556,-0.124 -1.142,-0.48 -1.753,-1.074 -0.618,-0.598 -1,-1.174 -1.147,-1.729 -0.146,-0.554 -0.04,-1.023 0.319,-1.404 0.356,-0.381 0.814,-0.508 1.373,-0.386 0.56,0.122 1.144,0.48 1.757,1.073 0.611,0.592 0.991,1.168 1.138,1.729 0.146,0.561 0.041,1.028 -0.316,1.409 -0.356,0.379 -0.813,0.505 -1.371,0.382" /><path
           inkscape:connector-curvature="0"
           id="path158"
           style="fill:#4c70b7;fill-opacity:1;fill-rule:evenodd;stroke:none"
           d="m 228.9429,273.166 c -0.445,0.293 -0.925,0.32 -1.439,0.082 -0.515,-0.237 -0.999,-0.713 -1.456,-1.426 -0.453,-0.709 -0.682,-1.349 -0.689,-1.927 -0.007,-0.577 0.212,-1.01 0.658,-1.303 0.436,-0.288 0.911,-0.311 1.426,-0.069 0.514,0.244 0.997,0.717 1.451,1.424 0.456,0.715 0.689,1.358 0.699,1.928 0.007,0.572 -0.209,1.001 -0.65,1.291" /><path
           inkscape:connector-curvature="0"
           id="path160"
           style="fill:#4c70b7;fill-opacity:1;fill-rule:evenodd;stroke:none"
           d="m 452.042,355.6104 c -0.827,0.179 -1.51,0.171 -2.048,-0.021 -0.541,-0.195 -0.864,-0.547 -0.972,-1.061 -0.106,-0.511 0.047,-0.964 0.463,-1.363 0.415,-0.395 1.036,-0.684 1.864,-0.863 0.835,-0.179 1.517,-0.173 2.053,0.016 0.534,0.189 0.855,0.541 0.964,1.061 0.109,0.508 -0.045,0.966 -0.461,1.365 -0.413,0.398 -1.037,0.687 -1.863,0.866" /><path
           inkscape:connector-curvature="0"
           id="path162"
           style="fill:#4c70b7;fill-opacity:1;fill-rule:evenodd;stroke:none"
           d="m 445.7388,333.958 c -0.749,0.315 -1.392,0.434 -1.924,0.36 -0.537,-0.076 -0.891,-0.331 -1.069,-0.764 -0.179,-0.441 -0.106,-0.876 0.222,-1.31 0.329,-0.433 0.867,-0.808 1.616,-1.122 0.748,-0.313 1.388,-0.435 1.918,-0.361 0.53,0.071 0.885,0.329 1.064,0.772 0.18,0.44 0.106,0.875 -0.218,1.307 -0.324,0.431 -0.861,0.806 -1.609,1.118" /><path
           inkscape:connector-curvature="0"
           id="path164"
           style="fill:#4c70b7;fill-opacity:1;fill-rule:evenodd;stroke:none"
           d="m 456.9785,353.3203 c 0.269,-0.48 0.351,-0.967 0.246,-1.459 -0.21,-1.01 -0.894,-1.703 -2.05,-2.079 -1.157,-0.375 -2.608,-0.374 -4.354,0.003 -1.69,0.364 -2.994,0.957 -3.91,1.777 -0.917,0.82 -1.275,1.708 -1.073,2.664 0.128,0.608 0.392,1.069 0.793,1.381 0.405,0.312 1.015,0.535 1.835,0.67 -0.258,0.027 -0.55,0.067 -0.87,0.121 -0.323,0.056 -0.67,0.121 -1.042,0.202 l -5.554,1.199 0.51,2.433 16.305,-3.517 -0.488,-2.333 -1.724,0.372 c 0.646,-0.478 1.104,-0.954 1.376,-1.434 m -2.227,-9.589 -16.053,4.557 0.691,2.498 16.052,-4.554 z m -2.298,-7.259 -10.297,3.505 0.767,2.318 2.425,-0.829 c -0.805,0.541 -1.359,1.093 -1.663,1.659 -0.306,0.562 -0.359,1.14 -0.165,1.726 0.031,0.098 0.069,0.193 0.112,0.288 0.043,0.097 0.091,0.191 0.145,0.285 l 3.225,-1.36 c -0.123,-0.119 -0.226,-0.248 -0.306,-0.378 -0.08,-0.132 -0.145,-0.263 -0.188,-0.395 -0.197,-0.599 -0.08,-1.151 0.352,-1.659 0.435,-0.51 1.147,-0.931 2.139,-1.269 l 4.26,-1.45 z m -1.913,-6.184 c -0.213,-0.52 -0.544,-0.95 -0.993,-1.294 -0.451,-0.344 -1.009,-0.588 -1.67,-0.73 -0.651,-0.149 -1.34,-0.177 -2.069,-0.093 -0.729,0.085 -1.459,0.28 -2.188,0.585 -0.736,0.308 -1.389,0.69 -1.963,1.15 -0.575,0.457 -1.047,0.976 -1.416,1.556 -0.365,0.567 -0.585,1.132 -0.659,1.697 -0.073,0.56 -0.003,1.106 0.209,1.63 0.215,0.522 0.543,0.959 0.985,1.302 0.443,0.344 0.994,0.588 1.649,0.735 0.675,0.147 1.372,0.18 2.099,0.096 0.725,-0.084 1.453,-0.278 2.182,-0.584 0.725,-0.303 1.371,-0.684 1.943,-1.147 0.569,-0.463 1.041,-0.982 1.41,-1.562 0.368,-0.584 0.592,-1.16 0.671,-1.725 0.079,-0.566 0.017,-1.104 -0.19,-1.616 m -4.675,-9.312 -6.557,2.002 c -0.231,0.069 -0.678,0.215 -1.339,0.442 -0.296,0.1 -0.526,0.179 -0.693,0.235 0.125,-0.092 0.295,-0.222 0.517,-0.389 0.564,-0.426 0.961,-0.733 1.188,-0.92 l 5.361,-4.311 -1.237,-2.39 -15.318,4.757 1.342,2.596 7.227,-2.465 c 0.37,-0.132 0.737,-0.263 1.107,-0.397 0.368,-0.132 0.744,-0.274 1.128,-0.424 -0.247,0.182 -0.504,0.372 -0.774,0.571 -0.269,0.203 -0.648,0.492 -1.142,0.867 l -6.053,4.733 1.072,2.075 7.24,-2.343 c 0.328,-0.103 0.666,-0.217 1.014,-0.342 0.349,-0.125 0.745,-0.273 1.191,-0.445 -0.463,0.328 -0.841,0.6 -1.139,0.816 -0.296,0.215 -0.55,0.405 -0.756,0.571 l -6.057,4.634 1.345,2.594 12.564,-10.084 z m -10.112,-16.941 -4.612,2.041 c -0.261,0.118 -0.518,0.244 -0.775,0.374 -0.254,0.131 -0.507,0.263 -0.758,0.399 0.319,-0.3 0.703,-0.697 1.153,-1.195 l 0.052,-0.057 3.346,-3.795 -1.06,-1.484 -10.574,3.976 1.543,2.161 4.532,-1.969 c 0.33,-0.143 0.617,-0.272 0.857,-0.389 0.24,-0.116 0.47,-0.236 0.691,-0.363 -0.266,0.249 -0.615,0.621 -1.049,1.12 -0.057,0.066 -0.101,0.114 -0.131,0.15 l -3.262,3.742 0.903,1.267 4.523,-1.982 c 0.013,-0.004 0.036,-0.014 0.07,-0.026 0.64,-0.273 1.134,-0.511 1.484,-0.714 -0.168,0.16 -0.34,0.334 -0.518,0.521 -0.176,0.186 -0.4,0.433 -0.668,0.737 l -3.255,3.755 1.551,2.174 7.015,-8.959 z m -7.239,-10.111 c -0.819,-0.973 -1.875,-1.408 -3.168,-1.303 -1.296,0.105 -2.596,0.723 -3.906,1.857 -1.285,1.115 -2.104,2.336 -2.459,3.661 -0.354,1.325 -0.155,2.437 0.604,3.337 0.779,0.924 1.824,1.281 3.135,1.069 1.313,-0.214 2.717,-0.969 4.218,-2.266 l 0.137,-0.123 -3.577,-4.244 c 0.642,-0.549 1.224,-0.865 1.754,-0.947 0.53,-0.084 0.963,0.073 1.297,0.47 0.252,0.3 0.381,0.623 0.387,0.973 0.006,0.349 -0.108,0.717 -0.346,1.107 l 2.13,0.717 c 0.487,-0.725 0.708,-1.461 0.672,-2.207 -0.034,-0.75 -0.328,-1.449 -0.878,-2.101 m -6.619,-6.768 -8.543,3.018 c -0.175,0.06 -0.5,0.207 -0.974,0.44 -0.475,0.233 -1.024,0.52 -1.642,0.858 0.505,-0.433 0.947,-0.824 1.322,-1.172 0.379,-0.347 0.706,-0.662 0.985,-0.946 l 5.479,-5.596 -1.958,-1.971 -11.097,11.328 1.958,1.974 8.521,-2.994 c 0.17,-0.064 0.495,-0.213 0.968,-0.447 0.474,-0.233 1.03,-0.523 1.665,-0.869 -0.501,0.429 -0.941,0.816 -1.317,1.165 -0.377,0.347 -0.707,0.664 -0.983,0.948 l -5.48,5.594 1.948,1.963 11.096,-11.33 z m -13.567,-12.43 -1.086,1.41 c 0.199,-0.809 0.242,-1.488 0.129,-2.029 -0.115,-0.542 -0.393,-0.988 -0.839,-1.34 -0.762,-0.601 -1.695,-0.66 -2.803,-0.176 -1.105,0.485 -2.205,1.438 -3.298,2.862 -1.089,1.416 -1.716,2.729 -1.881,3.941 -0.165,1.213 0.157,2.137 0.964,2.775 0.429,0.34 0.906,0.493 1.431,0.463 0.525,-0.034 1.122,-0.251 1.789,-0.654 l -1.098,1.427 1.859,1.472 6.679,-8.689 z m -15.042,-10.69 -5.815,9.305 2.035,1.309 1.369,-2.193 c -0.288,0.933 -0.377,1.717 -0.261,2.349 0.113,0.633 0.429,1.116 0.947,1.448 0.084,0.053 0.172,0.104 0.265,0.152 0.093,0.047 0.189,0.09 0.29,0.128 l 1.658,-3.12 c -0.172,-0.015 -0.33,-0.047 -0.473,-0.098 -0.145,-0.049 -0.276,-0.112 -0.391,-0.186 -0.526,-0.337 -0.778,-0.841 -0.759,-1.513 0.02,-0.672 0.312,-1.457 0.872,-2.352 l 2.407,-3.851 z m -3.672,-0.72 c -0.07,-0.691 -0.249,-1.281 -0.534,-1.775 -0.285,-0.492 -0.666,-0.873 -1.142,-1.142 -0.482,-0.272 -1.008,-0.402 -1.571,-0.386 -0.565,0.014 -1.148,0.176 -1.753,0.485 -0.6,0.293 -1.158,0.704 -1.677,1.232 -0.518,0.527 -0.97,1.14 -1.351,1.84 -0.388,0.705 -0.665,1.418 -0.833,2.141 -0.168,0.717 -0.218,1.421 -0.151,2.109 0.062,0.676 0.236,1.258 0.524,1.742 0.289,0.487 0.678,0.868 1.166,1.145 0.489,0.275 1.011,0.41 1.57,0.398 0.559,-0.012 1.138,-0.166 1.74,-0.467 0.618,-0.308 1.184,-0.724 1.703,-1.25 0.517,-0.525 0.966,-1.136 1.349,-1.834 0.379,-0.692 0.652,-1.402 0.815,-2.125 0.163,-0.722 0.212,-1.427 0.145,-2.113 m -10.257,-6.936 -3.58,7.429 -0.98,-0.486 -1.189,2.47 0.979,0.484 -0.977,2.03 c -0.555,1.15 -0.765,2.117 -0.634,2.904 0.132,0.785 0.609,1.38 1.43,1.787 0.114,0.059 0.261,0.111 0.439,0.158 0.176,0.047 0.372,0.088 0.584,0.12 l 1.284,-2.665 c -0.131,0.008 -0.248,0.004 -0.348,-0.011 -0.104,-0.013 -0.192,-0.04 -0.264,-0.075 -0.215,-0.107 -0.325,-0.283 -0.329,-0.527 -0.004,-0.245 0.098,-0.586 0.309,-1.024 l 0.76,-1.578 1.146,0.569 1.191,-2.47 -1.145,-0.571 3.578,-7.428 z m -8.399,-3.105 c -0.28,-0.859 -0.856,-1.461 -1.728,-1.807 -0.593,-0.235 -1.183,-0.349 -1.769,-0.344 -0.587,0.005 -1.185,0.128 -1.791,0.372 l -0.574,2.959 c 0.527,-0.322 1.045,-0.526 1.557,-0.607 0.51,-0.083 0.977,-0.039 1.401,0.13 0.297,0.117 0.497,0.279 0.595,0.488 0.1,0.206 0.098,0.451 -0.01,0.727 -0.175,0.455 -0.619,0.669 -1.332,0.643 -0.235,-0.007 -0.424,-0.008 -0.57,-0.004 -0.828,0.016 -1.495,0.201 -2.005,0.558 -0.51,0.355 -0.913,0.919 -1.21,1.692 -0.385,0.996 -0.445,1.889 -0.184,2.679 0.263,0.792 0.812,1.354 1.655,1.689 0.431,0.171 0.9,0.269 1.406,0.295 0.505,0.024 1.056,-0.029 1.644,-0.163 l 0.467,-2.684 c -0.442,0.199 -0.856,0.319 -1.247,0.359 -0.39,0.041 -0.748,-0.002 -1.073,-0.13 -0.271,-0.11 -0.451,-0.255 -0.539,-0.44 -0.091,-0.181 -0.087,-0.396 0.007,-0.639 0.142,-0.366 0.573,-0.552 1.291,-0.554 0.166,-0.005 0.29,-0.006 0.373,-0.005 0.961,-0.032 1.698,-0.227 2.207,-0.582 0.509,-0.357 0.923,-0.948 1.243,-1.774 0.403,-1.048 0.466,-2.004 0.186,-2.858 m -7.456,-2.865 c -0.321,-0.842 -0.927,-1.411 -1.816,-1.713 -0.602,-0.204 -1.198,-0.287 -1.783,-0.252 -0.587,0.035 -1.178,0.191 -1.77,0.464 l -0.423,2.986 c 0.508,-0.35 1.014,-0.579 1.522,-0.687 0.507,-0.109 0.976,-0.09 1.407,0.055 0.303,0.104 0.51,0.254 0.62,0.457 0.111,0.203 0.119,0.445 0.026,0.729 -0.154,0.462 -0.585,0.697 -1.3,0.709 -0.234,0.006 -0.424,0.016 -0.567,0.027 -0.827,0.058 -1.483,0.278 -1.975,0.66 -0.49,0.381 -0.866,0.967 -1.124,1.753 -0.334,1.015 -0.349,1.909 -0.048,2.685 0.301,0.777 0.882,1.31 1.738,1.601 0.441,0.149 0.913,0.221 1.418,0.221 0.51,-10e-4 1.054,-0.083 1.636,-0.247 l 0.329,-2.704 c -0.429,0.222 -0.839,0.363 -1.227,0.423 -0.388,0.059 -0.746,0.035 -1.079,-0.077 -0.276,-0.094 -0.462,-0.23 -0.56,-0.409 -0.098,-0.177 -0.105,-0.392 -0.025,-0.64 0.124,-0.371 0.545,-0.579 1.263,-0.619 0.165,-0.014 0.289,-0.022 0.368,-0.025 0.962,-0.083 1.687,-0.313 2.179,-0.695 0.489,-0.382 0.874,-0.993 1.15,-1.837 0.35,-1.068 0.366,-2.023 0.041,-2.865 m -8.282,-3.049 c -0.445,-0.597 -1.076,-1.008 -1.892,-1.232 -1.217,-0.336 -2.332,-0.091 -3.345,0.736 -1.01,0.824 -1.74,2.078 -2.193,3.764 -0.442,1.656 -0.444,3.132 0,4.431 0.442,1.295 1.226,2.1 2.352,2.409 1.159,0.32 2.221,0.017 3.186,-0.909 0.967,-0.924 1.707,-2.351 2.223,-4.281 l 0.05,-0.179 -5.315,-1.463 c 0.225,-0.821 0.531,-1.417 0.922,-1.786 0.394,-0.371 0.838,-0.488 1.336,-0.351 0.373,0.103 0.66,0.297 0.859,0.583 0.198,0.284 0.308,0.655 0.329,1.113 l 2.159,-0.627 c -0.003,-0.875 -0.226,-1.61 -0.671,-2.208 m -10.727,-2.979 -1.163,5.784 c -0.172,0.861 -0.391,1.469 -0.657,1.823 -0.262,0.354 -0.596,0.489 -1.006,0.405 -0.52,-0.108 -0.839,-0.479 -0.96,-1.112 -0.123,-0.635 -0.051,-1.608 0.213,-2.917 l 0.912,-4.533 -2.458,-0.508 -2.174,10.795 2.29,0.472 0.441,-2.191 c 0.156,0.946 0.412,1.668 0.766,2.163 0.353,0.497 0.834,0.808 1.442,0.933 0.461,0.096 0.889,0.069 1.296,-0.082 0.403,-0.15 0.758,-0.412 1.068,-0.786 0.26,-0.324 0.485,-0.74 0.668,-1.243 0.183,-0.503 0.38,-1.271 0.587,-2.305 l 1.244,-6.178 z m -8.269,-0.945 c -0.463,-0.769 -1.159,-1.221 -2.087,-1.359 -0.629,-0.092 -1.229,-0.069 -1.799,0.072 -0.571,0.142 -1.125,0.399 -1.662,0.775 l 0.107,3.014 c 0.437,-0.435 0.897,-0.75 1.379,-0.949 0.478,-0.197 0.942,-0.264 1.39,-0.197 0.319,0.047 0.549,0.16 0.693,0.339 0.143,0.178 0.192,0.415 0.152,0.711 -0.069,0.481 -0.456,0.792 -1.156,0.932 -0.229,0.047 -0.415,0.09 -0.554,0.128 -0.802,0.206 -1.41,0.539 -1.827,1.005 -0.417,0.464 -0.684,1.106 -0.801,1.926 -0.15,1.058 -0.011,1.941 0.421,2.652 0.434,0.71 1.095,1.133 1.99,1.262 0.459,0.068 0.937,0.056 1.436,-0.037 0.499,-0.09 1.021,-0.27 1.566,-0.536 l -0.148,-2.722 c -0.385,0.299 -0.762,0.51 -1.135,0.638 -0.372,0.129 -0.728,0.168 -1.074,0.119 -0.289,-0.043 -0.496,-0.143 -0.623,-0.301 -0.127,-0.157 -0.172,-0.366 -0.136,-0.626 0.056,-0.389 0.433,-0.668 1.135,-0.836 0.16,-0.044 0.279,-0.073 0.361,-0.092 0.928,-0.254 1.602,-0.611 2.018,-1.076 0.417,-0.464 0.687,-1.133 0.813,-2.012 0.159,-1.116 0.005,-2.058 -0.459,-2.83 m -7.879,0.925 c -0.081,-0.608 -0.255,-1.16 -0.524,-1.651 -0.278,-0.514 -0.642,-0.912 -1.098,-1.192 -0.456,-0.283 -1.006,-0.452 -1.648,-0.51 -0.638,-0.058 -1.206,0.012 -1.699,0.209 -0.495,0.198 -0.929,0.523 -1.304,0.979 -0.349,0.422 -0.614,0.931 -0.795,1.521 -0.182,0.594 -0.326,1.51 -0.432,2.748 l -0.487,5.609 2.428,0.218 0.509,-5.859 c 0.079,-0.92 0.236,-1.577 0.472,-1.966 0.235,-0.392 0.577,-0.568 1.025,-0.528 0.454,0.04 0.76,0.271 0.923,0.691 0.162,0.419 0.202,1.096 0.122,2.031 l -0.509,5.857 2.484,0.222 0.488,-5.609 c 0.108,-1.236 0.123,-2.162 0.045,-2.77 m -9.685,-0.194 c -0.186,-0.719 -0.463,-1.367 -0.836,-1.944 -0.378,-0.577 -0.805,-1.018 -1.282,-1.322 -0.478,-0.304 -0.989,-0.462 -1.533,-0.477 -0.554,-0.013 -1.077,0.116 -1.571,0.393 -0.491,0.277 -0.937,0.696 -1.333,1.252 -0.399,0.543 -0.705,1.168 -0.925,1.881 -0.22,0.709 -0.34,1.465 -0.362,2.264 -0.02,0.808 0.059,1.57 0.238,2.286 0.179,0.719 0.456,1.366 0.828,1.944 0.363,0.57 0.783,1.004 1.261,1.3 0.477,0.296 0.996,0.452 1.555,0.468 0.56,0.014 1.083,-0.114 1.572,-0.383 0.491,-0.272 0.936,-0.682 1.331,-1.231 0.408,-0.563 0.72,-1.199 0.941,-1.905 0.217,-0.708 0.338,-1.462 0.358,-2.261 0.023,-0.793 -0.059,-1.549 -0.242,-2.265 m -10.138,9.549 c -0.283,-0.417 -0.62,-0.621 -1.013,-0.613 -0.381,0.009 -0.707,0.23 -0.976,0.663 -0.268,0.436 -0.397,0.947 -0.387,1.536 0.014,0.589 0.159,1.089 0.443,1.497 0.283,0.409 0.618,0.61 1.006,0.602 0.401,-0.008 0.733,-0.219 0.994,-0.631 0.263,-0.414 0.387,-0.922 0.376,-1.524 -0.011,-0.605 -0.159,-1.114 -0.443,-1.53 m 0.027,-12.918 -2.556,0.05 0.215,11.016 2.56,-0.052 z m -4.709,7.508 c -0.229,0.351 -0.453,0.608 -0.674,0.775 -0.219,0.166 -0.456,0.257 -0.709,0.272 -0.504,0.031 -0.922,-0.198 -1.25,-0.688 -0.329,-0.49 -0.519,-1.172 -0.571,-2.041 -0.051,-0.843 0.066,-1.524 0.346,-2.043 0.279,-0.52 0.683,-0.796 1.208,-0.827 0.257,-0.017 0.504,0.046 0.74,0.188 0.236,0.143 0.465,0.371 0.691,0.686 l -0.2,-3.366 c -0.321,-0.243 -0.639,-0.416 -0.951,-0.522 -0.312,-0.104 -0.632,-0.146 -0.956,-0.126 -1.111,0.068 -1.98,0.665 -2.605,1.793 -0.624,1.128 -0.884,2.576 -0.778,4.349 0.101,1.719 0.537,3.104 1.305,4.153 0.769,1.049 1.705,1.541 2.807,1.474 0.368,-0.023 0.695,-0.097 0.985,-0.224 0.289,-0.127 0.558,-0.319 0.806,-0.574 z m -9.847,0.329 c 0.144,-0.082 0.253,-0.142 0.326,-0.179 0.838,-0.481 1.402,-0.996 1.69,-1.553 0.29,-0.555 0.388,-1.273 0.292,-2.155 -0.12,-1.12 -0.499,-1.995 -1.139,-2.622 -0.639,-0.629 -1.425,-0.892 -2.356,-0.788 -0.632,0.07 -1.207,0.244 -1.725,0.524 -0.518,0.28 -0.991,0.671 -1.419,1.172 l 0.845,2.89 c 0.317,-0.531 0.684,-0.955 1.1,-1.267 0.416,-0.314 0.851,-0.494 1.302,-0.544 0.318,-0.036 0.568,0.016 0.752,0.153 0.183,0.139 0.29,0.354 0.321,0.649 0.053,0.486 -0.243,0.884 -0.888,1.197 -0.21,0.103 -0.378,0.191 -0.506,0.264 -0.726,0.402 -1.234,0.88 -1.522,1.433 -0.29,0.557 -0.389,1.246 -0.3,2.071 0.113,1.063 0.468,1.882 1.059,2.46 0.593,0.579 1.341,0.82 2.237,0.721 0.462,-0.051 0.923,-0.185 1.382,-0.401 0.46,-0.215 0.922,-0.521 1.385,-0.914 l -0.813,-2.6 c -0.3,0.384 -0.614,0.687 -0.942,0.905 -0.327,0.219 -0.665,0.348 -1.012,0.387 -0.29,0.031 -0.516,-0.014 -0.678,-0.134 -0.161,-0.121 -0.256,-0.311 -0.284,-0.572 -0.042,-0.391 0.255,-0.757 0.893,-1.097 m -5.394,-0.035 -1.024,-6.219 -2.525,0.428 0.959,5.821 c 0.142,0.869 0.153,1.515 0.032,1.941 -0.121,0.426 -0.387,0.676 -0.797,0.744 -0.523,0.089 -0.954,-0.142 -1.29,-0.689 -0.339,-0.547 -0.615,-1.482 -0.833,-2.8 l -0.752,-4.562 -2.474,0.419 1.79,10.866 2.305,-0.389 -0.363,-2.206 c 0.479,0.826 0.972,1.405 1.478,1.738 0.507,0.336 1.064,0.453 1.678,0.348 0.462,-0.078 0.855,-0.261 1.179,-0.547 0.323,-0.288 0.562,-0.662 0.719,-1.124 0.129,-0.398 0.19,-0.864 0.184,-1.404 -0.007,-0.537 -0.095,-1.324 -0.266,-2.365 m -9.751,0.871 c -0.178,-0.773 -0.444,-1.483 -0.803,-2.13 -0.358,-0.646 -0.789,-1.202 -1.294,-1.665 -0.508,-0.461 -1.031,-0.779 -1.568,-0.951 -0.539,-0.17 -1.073,-0.191 -1.602,-0.068 -0.54,0.129 -1.014,0.391 -1.421,0.785 -0.408,0.397 -0.735,0.914 -0.979,1.555 -0.248,0.627 -0.39,1.311 -0.425,2.052 -0.035,0.745 0.038,1.508 0.216,2.287 0.181,0.786 0.448,1.503 0.802,2.151 0.352,0.648 0.781,1.205 1.286,1.667 0.493,0.458 1.008,0.769 1.542,0.935 0.537,0.164 1.077,0.179 1.622,0.051 0.545,-0.128 1.02,-0.387 1.427,-0.774 0.406,-0.387 0.733,-0.899 0.98,-1.531 0.252,-0.651 0.397,-1.345 0.432,-2.085 0.037,-0.74 -0.036,-1.5 -0.215,-2.279 m -9.687,9.713 c -0.789,0.24 -1.546,0.027 -2.278,-0.642 -0.73,-0.67 -1.292,-1.662 -1.682,-2.978 -0.365,-1.225 -0.418,-2.317 -0.161,-3.276 0.255,-0.961 0.767,-1.56 1.537,-1.793 0.425,-0.13 0.869,-0.106 1.329,0.076 0.461,0.183 0.974,0.535 1.541,1.061 l -1.358,-4.563 c -0.529,-0.187 -1.033,-0.295 -1.511,-0.324 -0.477,-0.028 -0.936,0.025 -1.376,0.159 -0.549,0.168 -1.026,0.423 -1.432,0.763 -0.405,0.343 -0.742,0.772 -1.011,1.295 -0.523,0.996 -0.808,2.134 -0.856,3.418 -0.049,1.282 0.144,2.652 0.577,4.107 0.348,1.17 0.788,2.195 1.323,3.077 0.533,0.88 1.169,1.634 1.903,2.259 0.698,0.6 1.4,0.994 2.107,1.18 0.708,0.184 1.427,0.166 2.159,-0.057 0.439,-0.136 0.85,-0.348 1.231,-0.641 0.384,-0.29 0.745,-0.664 1.085,-1.115 l -1.354,-4.553 c -0.188,0.746 -0.424,1.327 -0.707,1.737 -0.286,0.408 -0.642,0.679 -1.066,0.81 m -13.048,-0.715 c -0.113,0.134 -0.23,0.245 -0.353,0.334 -0.124,0.092 -0.251,0.162 -0.38,0.215 -0.575,0.237 -1.126,0.152 -1.652,-0.258 -0.527,-0.406 -0.986,-1.103 -1.379,-2.087 l -1.687,-4.225 -2.353,0.965 4.075,10.213 2.234,-0.916 -0.961,-2.409 c 0.579,0.782 1.157,1.312 1.73,1.586 0.573,0.274 1.145,0.294 1.713,0.063 0.092,-0.04 0.184,-0.083 0.275,-0.131 0.092,-0.051 0.181,-0.104 0.271,-0.166 z m -7.997,0.145 -4.981,2.381 c -0.353,-0.773 -0.499,-1.429 -0.439,-1.969 0.062,-0.539 0.325,-0.921 0.792,-1.145 0.352,-0.166 0.692,-0.207 1.027,-0.121 0.333,0.086 0.652,0.297 0.962,0.631 l 1.243,-1.896 c -0.562,-0.664 -1.204,-1.078 -1.924,-1.24 -0.72,-0.163 -1.462,-0.061 -2.227,0.306 -1.143,0.545 -1.834,1.465 -2.075,2.76 -0.242,1.292 0.004,2.728 0.737,4.306 0.722,1.551 1.666,2.678 2.832,3.374 1.166,0.696 2.276,0.793 3.331,0.287 1.086,-0.518 1.701,-1.446 1.845,-2.785 0.144,-1.339 -0.204,-2.913 -1.045,-4.723 z m -11.134,0.17 -2.238,1.262 2.821,5.159 c 0.421,0.769 0.645,1.376 0.672,1.817 0.026,0.443 -0.143,0.767 -0.507,0.971 -0.464,0.262 -0.945,0.189 -1.443,-0.21 -0.499,-0.401 -1.068,-1.187 -1.708,-2.359 l -2.211,-4.043 -2.195,1.234 8.085,14.786 2.196,-1.235 -2.838,-5.189 c -0.189,-0.344 -0.369,-0.658 -0.542,-0.944 -0.172,-0.286 -0.336,-0.537 -0.489,-0.76 0.674,0.563 1.292,0.903 1.857,1.027 0.565,0.123 1.111,0.036 1.637,-0.26 0.41,-0.231 0.719,-0.535 0.93,-0.917 0.21,-0.379 0.314,-0.814 0.309,-1.302 -0.011,-0.418 -0.108,-0.879 -0.289,-1.383 -0.185,-0.506 -0.528,-1.219 -1.031,-2.141 z m -11.99,2.75 c -0.986,-0.301 -2.066,-0.065 -3.237,0.705 -0.946,0.623 -1.517,1.378 -1.712,2.267 -0.196,0.886 0.002,1.831 0.595,2.826 l 2.22,-1.46 c -0.153,-0.31 -0.191,-0.604 -0.116,-0.882 0.074,-0.279 0.26,-0.515 0.553,-0.707 0.461,-0.306 0.886,-0.345 1.277,-0.12 0.391,0.224 0.934,0.879 1.629,1.965 l 0.539,0.841 c -0.596,-0.432 -1.159,-0.675 -1.689,-0.728 -0.531,-0.054 -1.036,0.076 -1.517,0.394 -0.802,0.528 -1.164,1.392 -1.085,2.593 0.078,1.2 0.589,2.536 1.528,4.006 0.95,1.483 1.958,2.493 3.025,3.036 1.067,0.541 2.029,0.53 2.888,-0.035 0.453,-0.297 0.753,-0.699 0.9,-1.202 0.147,-0.507 0.146,-1.142 -0.002,-1.912 l 0.948,1.483 1.978,-1.303 -5.902,-9.223 c -0.892,-1.396 -1.833,-2.245 -2.82,-2.544 m -8.08,10.037 6.394,8.906 2.068,-1.528 -6.394,-8.905 z m -4.625,3.613 4.082,5.014 -2.939,2.463 -4.084,-5.012 -2.206,1.848 10.029,12.311 2.206,-1.848 -3.899,-4.785 2.941,-2.463 3.897,4.785 2.211,-1.852 -10.027,-12.314 z m -12.9,11.889 1.277,1.236 c -0.754,-0.274 -1.402,-0.388 -1.945,-0.344 -0.543,0.044 -0.985,0.249 -1.329,0.614 -0.702,0.747 -0.881,1.71 -0.534,2.89 0.346,1.18 1.165,2.395 2.457,3.645 1.249,1.211 2.466,1.969 3.652,2.273 1.184,0.306 2.109,0.106 2.775,-0.603 0.424,-0.449 0.648,-0.93 0.675,-1.444 0.027,-0.513 -0.135,-1.152 -0.487,-1.914 0.167,0.2 0.363,0.422 0.59,0.661 0.225,0.238 0.476,0.492 0.75,0.756 l 4.108,3.978 1.692,-1.799 -12.056,-11.674 z m -5.5,5.985 -1.625,2.005 4.495,3.748 c 0.669,0.559 1.097,1.038 1.282,1.44 0.185,0.402 0.145,0.766 -0.118,1.091 -0.337,0.416 -0.81,0.532 -1.419,0.342 -0.609,-0.186 -1.423,-0.705 -2.443,-1.554 l -3.522,-2.938 -1.594,1.967 8.393,6.996 1.483,-1.832 -1.703,-1.418 c 0.897,0.301 1.643,0.408 2.241,0.324 0.599,-0.086 1.094,-0.371 1.49,-0.859 0.296,-0.367 0.475,-0.767 0.533,-1.199 0.056,-0.432 -0.005,-0.873 -0.185,-1.325 -0.163,-0.386 -0.419,-0.78 -0.772,-1.18 -0.352,-0.402 -0.93,-0.935 -1.733,-1.606 z m -7.951,10.261 1.444,1.027 c -0.808,-0.16 -1.477,-0.17 -2.005,-0.027 -0.527,0.141 -0.953,0.449 -1.277,0.916 -0.554,0.803 -0.566,1.75 -0.032,2.85 0.533,1.093 1.527,2.16 2.982,3.197 1.45,1.031 2.775,1.6 3.976,1.707 1.203,0.104 2.096,-0.268 2.683,-1.117 0.315,-0.451 0.442,-0.943 0.383,-1.473 -0.058,-0.53 -0.302,-1.122 -0.733,-1.779 l 1.461,1.039 1.355,-1.957 -8.889,-6.33 z m -14.66,14.93 6.64,1.322 6.685,7.069 1.356,-2.522 -2.962,-2.806 c -0.248,-0.237 -0.482,-0.451 -0.704,-0.639 -0.222,-0.188 -0.432,-0.354 -0.633,-0.499 0.241,0.1 0.495,0.192 0.764,0.278 0.269,0.086 0.568,0.169 0.9,0.254 l 3.936,0.993 1.309,-2.434 -15.927,-3.55 z m 9.612,16.853 0.993,-2.392 -10.011,-4.274 -0.993,2.393 z m -11.917,0.738 5.492,1.95 c 0.819,0.29 1.384,0.591 1.693,0.904 0.309,0.313 0.396,0.67 0.259,1.066 -0.175,0.509 -0.581,0.78 -1.215,0.817 -0.636,0.037 -1.577,-0.166 -2.821,-0.609 l -4.304,-1.526 -0.83,2.404 10.254,3.636 0.771,-2.237 -2.08,-0.739 c 0.944,-0.029 1.683,-0.189 2.215,-0.477 0.533,-0.289 0.9,-0.731 1.107,-1.325 0.154,-0.449 0.185,-0.887 0.091,-1.311 -0.091,-0.428 -0.3,-0.82 -0.623,-1.181 -0.282,-0.306 -0.656,-0.586 -1.125,-0.838 -0.466,-0.254 -1.189,-0.553 -2.171,-0.903 l -5.867,-2.082 z m -4.105,12.154 c -0.22,0.884 -0.251,1.672 -0.095,2.364 0.156,0.691 0.499,1.297 1.03,1.813 0.482,0.463 1.106,0.867 1.866,1.21 0.762,0.342 1.979,0.727 3.655,1.158 l 1.585,0.406 6.485,1.663 0.699,-2.806 -7.423,-1.905 c -1.09,-0.277 -1.871,-0.497 -2.337,-0.656 -0.467,-0.161 -0.848,-0.326 -1.147,-0.498 -0.363,-0.207 -0.612,-0.473 -0.75,-0.793 -0.139,-0.319 -0.16,-0.672 -0.063,-1.059 0.096,-0.384 0.279,-0.684 0.55,-0.897 0.272,-0.214 0.616,-0.325 1.033,-0.339 0.342,-0.008 0.756,0.032 1.241,0.117 0.487,0.083 1.274,0.266 2.365,0.545 l 1.043,0.268 6.381,1.636 0.699,-2.798 -8.071,-2.071 c -1.675,-0.429 -2.928,-0.679 -3.759,-0.747 -0.829,-0.066 -1.565,-0.012 -2.21,0.169 -0.705,0.193 -1.29,0.559 -1.753,1.097 -0.463,0.535 -0.803,1.245 -1.024,2.123 m 17.868,-12.417 c 0.283,0.425 0.691,0.752 1.226,0.98 0.536,0.229 1.045,0.295 1.528,0.198 0.485,-0.096 0.801,-0.324 0.951,-0.686 0.156,-0.376 0.1,-0.768 -0.166,-1.18 -0.264,-0.409 -0.671,-0.732 -1.22,-0.966 -0.547,-0.234 -1.067,-0.304 -1.556,-0.211 -0.491,0.092 -0.812,0.324 -0.964,0.691 -0.148,0.355 -0.081,0.746 0.201,1.174 m 1.83,-8.746 -2.447,-1.18 -0.465,0.99 -7.365,-3.543 -1.08,2.305 7.366,3.545 -0.465,0.993 2.449,1.179 0.463,-0.992 2.925,1.408 1.08,-2.307 -2.925,-1.406 z m 40.63,-43.498 c 0.342,0.476 0.745,0.8 1.208,0.97 0.461,0.171 0.848,0.141 1.162,-0.09 0.325,-0.24 0.479,-0.605 0.46,-1.094 -0.017,-0.491 -0.201,-0.981 -0.552,-1.469 -0.35,-0.488 -0.759,-0.819 -1.225,-0.996 -0.468,-0.178 -0.86,-0.148 -1.177,0.085 -0.309,0.228 -0.451,0.6 -0.426,1.111 0.024,0.512 0.208,1.006 0.55,1.483 m 208.432,87.172 c -2.06,-59.54 -56.254,-107.235 -122.818,-107.235 -67.261,0 -121.892,48.705 -122.863,109.113 -10.756,-2.774 -25.554,-4.558 -35.814,2.332 3.584,-80.191 73.25,-144.164 158.677,-144.164 85.981,0 155.996,64.802 158.741,145.724 -14.438,-6.933 -29.208,-6.481 -35.923,-5.77" /><path
           inkscape:connector-curvature="0"
           id="path166"
           style="fill:#a4b538;fill-opacity:1;fill-rule:nonzero;stroke:none"
           d="m 333.8208,444.144 c 0.385,-0.469 0.819,-0.9 1.312,-1.28 h -1.596 c 0.144,0.52 0.225,0.94 0.262,1.153 0.009,0.044 0.016,0.086 0.022,0.127 m -79.688,-85.538 c -1.553,3.046 -2.676,6.466 -3.346,10.187 0.31,0.893 0.846,1.652 1.456,2.512 1.341,1.897 3.011,4.256 2.43,8.576 l -0.218,1.609 -1.588,0.26 c 2.577,0.521 4.455,1.379 6.178,2.164 3.121,1.423 5.583,2.547 11.826,1.279 l 1.165,-0.237 c 1.499,-3.806 4.752,-6.05 9.524,-6.507 2.2,-5.632 7.712,-7.842 12.62,-9.81 4.786,-1.92 8.966,-3.598 10.343,-7.84 -2.691,-3.378 -2.733,-8.139 -2.772,-12.386 -0.066,-7.253 -0.662,-9.227 -4.744,-9.295 l -1.749,-0.028 -0.36,-1.711 c -0.222,-1.047 -0.433,-2.121 -0.647,-3.218 -0.942,-4.802 -1.912,-9.74 -4.069,-14.268 -4.642,4.472 -8.545,9.079 -11.627,13.72 -7.549,11.373 -17.365,19.824 -24.422,24.993 m 77.603,89.553 c -0.108,0.014 -0.222,0.024 -0.343,0.024 -0.072,0 -0.148,-0.003 -0.225,-0.011 0.123,0.195 0.25,0.386 0.38,0.574 0.061,-0.196 0.122,-0.392 0.188,-0.587 m -96.512,-54.323 c 2.543,-0.067 4.016,1.201 4.954,2.391 -0.09,-0.801 -0.014,-1.728 0.342,-2.793 l 0.425,-1.268 1.321,-0.203 c 2.503,-0.387 2.554,-1.01 2.77,-3.631 0.064,-0.773 0.135,-1.632 0.31,-2.531 -0.697,0.654 -1.373,1.347 -2.057,2.051 -2.223,2.282 -4.63,4.751 -8.065,5.984 m 60.224,67.925 c 0.169,0.391 0.329,0.761 0.494,1.028 l 1.752,2.845 0.273,-0.008 c 0.655,-0.021 1.269,0.051 1.828,0.207 -0.502,-3.831 -3.149,-5.514 -6.384,-7.486 -0.203,0 -0.383,0.006 -0.555,0.025 1.508,0.873 2.184,2.44 2.592,3.389 m 85.901,-25.677 1.317,1.939 1.847,-1.443 c 3.152,-2.463 6.604,-5.544 7.726,-10.98 l 1.092,-5.281 -3.436,2.324 -2.108,-11.87 -1.847,14.098 c -0.113,0.854 -1.203,1.775 -2.259,2.667 -1.807,1.527 -5.17,4.37 -2.332,8.546 m -26.315,10.952 c -0.818,-1.066 -1.733,-2.262 -3.126,-2.262 -0.167,0 -0.342,0.018 -0.524,0.056 -0.224,0.045 -0.601,0.157 -0.98,0.437 -0.844,0.132 -1.408,0.53 -1.767,0.906 -1.314,1.378 -0.88,3.349 -0.462,5.256 0.297,1.351 0.667,3.032 0.3,3.906 l -0.525,1.255 0.89,1.028 c 0.967,1.116 2.091,1.014 2.527,0.918 1.605,-0.353 2.045,-1.884 2.471,-3.363 0.202,-0.697 0.662,-2.297 1.088,-2.674 0.071,0.016 0.144,0.029 0.219,0.039 l 0.784,-4.306 c 0.133,0.039 0.205,0.086 0.207,0.087 -0.247,-0.166 -0.805,-0.894 -1.102,-1.283 m 15.889,-84.96 c 3.576,2.306 8.091,4.435 13.429,6.33 4.108,4.131 9.025,9.256 10.372,17.42 -0.187,-0.041 -0.447,-0.11 -0.654,-0.166 -1.107,-0.297 -2.78,-0.747 -5.191,-0.499 l -6.161,0.631 3.066,2.003 -2.372,3.051 c -0.519,0.665 -1.112,1.297 -1.742,1.963 -2.018,2.138 -4.307,4.563 -4.652,8.904 l -0.948,11.905 5.117,-10.791 c 0.406,-0.86 1.209,-1.521 2.139,-2.289 1.915,-1.58 4.536,-3.743 3.998,-8.589 l -0.38,-3.396 0.96,0.627 c 1.55,1.011 3,2.099 4.533,3.252 2.625,1.969 5.337,4.004 8.554,5.599 l 0.008,0.092 c 0.536,5.839 -0.553,8.812 -0.563,8.84 l -0.088,0.282 c -1.606,6.684 -2.041,12.808 -1.294,18.211 -13.307,30.345 -41.849,52.409 -74.639,57.648 -10.068,1.608 -14.94,1.305 -19.654,1.01 l -1.151,-0.07 c -13.663,-0.813 -25.412,-3.939 -39.291,-10.454 -21.762,-10.216 -40.811,-30.844 -49.802,-53.902 0.095,-2.639 0.564,-5.32 1.376,-7.886 l 0.621,-0.693 c 0.908,-1.011 1.377,-2.108 1.621,-3.169 1.294,-0.158 2.262,-0.876 2.673,-1.939 l 0.118,-0.191 c 0.746,-1.088 1.382,-2.499 2.103,-4.095 1.27,-2.816 2.834,-6.279 4.952,-7.268 1.838,0.26 3.463,0.233 4.92,-0.008 l -0.309,0.961 c -1.677,5.243 -1.307,9.582 1.102,12.902 3.827,5.27 11.794,6.414 17.803,6.444 l 1.602,0.008 0.417,-1.282 c 0.135,1.255 0.458,2.439 1.261,3.398 l 0.193,0.231 0.248,0.169 c 0.808,0.553 1.58,1.137 2.398,1.755 1.729,1.304 3.507,2.647 5.651,3.709 0.606,3.445 3.835,5.607 6.725,7.543 2.126,1.424 4.325,2.897 5.348,4.692 l 0.63,1.108 h 5.518 c -0.407,0.741 -0.674,1.724 -0.468,3.002 l 0.212,1.323 1.275,0.415 c 0.749,0.244 1.404,0.632 2.164,1.083 1.369,0.811 2.92,1.731 5.263,1.924 l 2.713,0.225 c -0.077,0.826 -0.238,1.815 -0.46,3.01 -0.267,1.437 -0.54,2.902 -0.599,4.348 -2.494,-0.159 -3.696,1.142 -4.895,2.806 -0.037,0.051 -0.074,0.101 -0.111,0.154 -3.214,-1.95 -5.544,-4.896 -7.992,-7.99 -0.851,-1.076 -1.73,-2.188 -2.652,-3.26 l -1.737,-2.019 -1.649,2.093 c -0.606,0.771 -1.052,1.587 -1.483,2.377 -0.833,1.525 -1.352,2.401 -2.353,2.692 l -3.337,0.968 2.31,2.596 c 3.331,3.743 7.43,7.615 14.09,6.655 1.209,0.753 2.302,1.681 3.447,2.654 0.494,0.421 1.005,0.855 1.539,1.283 l -0.026,0.386 0.406,-0.084 c 0.94,0.734 1.961,1.447 3.112,2.058 -0.049,-0.009 -0.097,-0.017 -0.144,-0.027 -1.612,-0.292 -2.885,-0.522 -5.614,-2.564 l -3.604,-2.7 0.096,4.502 c 0.021,0.94 -0.235,1.186 -2.107,2.03 -0.253,0.113 -0.511,0.229 -0.77,0.353 -1.364,-0.658 -2.455,-1.664 -3.688,-2.799 -0.875,-0.808 -1.782,-1.643 -2.846,-2.394 l -0.97,-0.683 -1.102,0.437 c -2.979,1.182 -5.494,0.856 -8.156,0.509 -2.51,-0.325 -5.106,-0.663 -7.749,0.489 l -3.21,1.398 2.66,2.278 c 16.293,13.954 52.354,20.967 77.17,15.011 l 4.761,-1.142 -4.023,-2.793 c -3.417,-2.37 -8.179,-2.341 -13.223,-2.307 -1.248,0.009 -2.506,0.017 -3.743,-0.014 l 0.086,-1.576 c 0.179,-3.328 -1.59,-6.139 -3.151,-8.619 -1.888,-2.995 -3.096,-5.119 -2.489,-7.635 1.193,0.31 1.754,1.288 2.681,3.073 0.271,0.522 0.549,1.06 0.871,1.593 l 0.536,0.885 1.021,0.151 c 9.609,1.421 16.19,6.096 20.123,14.292 l 0.671,1.402 1.546,-0.172 c 12.649,-1.392 22.506,-6.397 30.132,-15.295 l 5.288,-6.175 -7.677,2.677 c -0.619,0.216 -1.195,0.42 -1.738,0.612 -4.769,1.691 -6.649,2.362 -13.557,2.195 -0.933,-0.862 -1.678,-2.068 -2.46,-3.334 -1.278,-2.068 -2.702,-4.375 -5.287,-5.723 0.009,-0.544 0.276,-0.82 0.848,-1.32 l 0.033,1.058 2.817,-0.981 c 2.306,-0.803 3.53,-2.596 3.451,-5.051 l -0.096,-2.978 -2.816,0.977 c -0.324,0.112 -0.63,0.246 -0.912,0.397 -0.059,-0.284 -0.133,-0.579 -0.224,-0.889 l -0.554,-1.865 -1.447,0.247 -8.114,-3.637 c -0.203,-0.091 -0.355,-0.171 -0.468,-0.238 0.178,-0.272 0.443,-0.616 0.627,-0.852 0.69,-0.892 2.336,-3.014 1.354,-5.071 l 1.935,-0.345 c 0.942,-0.169 1.144,-0.007 1.895,0.593 0.83,0.664 1.979,1.582 3.964,1.61 l -0.096,0.726 1.456,-0.838 c 0.278,-0.047 0.568,-0.109 0.872,-0.189 l 2.413,-0.635 1.034,0.494 c 3.835,1.826 6.72,-2.17 8.827,-5.09 0.38,-0.525 0.764,-1.059 1.135,-1.537 0.191,0.988 0.642,2.171 1.955,2.765 l 1.682,0.764 v 3.422 l 1.187,0.613 c 2.068,1.069 7.908,1.933 11.69,-0.231 2.084,-1.191 3.255,-3.085 3.386,-5.475 l 0.191,-3.487 -3.224,1.343 c -2.193,0.913 -3.527,0.712 -5.946,0.35 -1.262,-0.19 -2.819,-0.424 -4.764,-0.508 1.931,-2.757 3.983,-3.909 6.126,-3.434 l 2.669,0.594 v -8.485 l -1.849,-0.295 c -3.184,-0.503 -6.086,-0.074 -8.647,0.307 -3.487,0.519 -5.531,0.741 -6.997,-0.683 l -1.757,-1.704 -1.503,1.93 c -0.632,0.812 -1.521,1.514 -2.464,2.256 -1.491,1.175 -3.143,2.475 -4.178,4.518 -1.959,-0.068 -3.584,0.248 -4.951,0.513 -2.079,0.403 -3.139,0.566 -4.468,-0.127 l -2.485,-1.296 -0.66,2.723 c -0.571,2.356 0.253,3.731 0.745,4.553 0.34,0.567 0.392,0.656 0.245,1.266 l -0.42,1.741 -0.514,-0.466 -0.78,-0.042 c -1.909,-0.1 -3.755,-0.134 -5.311,0.32 -0.309,-0.696 -0.335,-1.416 -0.393,-3.07 -0.024,-0.682 -0.052,-1.506 -0.112,-2.501 0.674,-0.079 1.638,-0.081 2.184,-0.083 1.787,-0.003 3.636,-0.009 4.203,-1.821 0.25,-0.799 0.209,-1.99 -1.411,-3.118 l -0.481,-0.335 -0.584,-0.05 c -2.309,-0.335 -9.04,-9.712 -11.914,-13.715 -0.473,-0.66 -0.925,-1.288 -1.348,-1.871 -2.289,-3.157 -2.754,-8.188 -1.246,-13.455 1.494,-5.214 4.606,-9.63 7.832,-11.173 8.12,0.146 17.229,0.265 24.027,-2.067 l 1.091,-0.375 0.309,-1.11 c 1.029,-3.687 -1.731,-4.815 -2.712,-5.195 0.541,-2.189 1.747,-3.871 3.016,-5.636 1.717,-2.395 3.663,-5.11 3.736,-9.111 0.04,-2.139 -0.862,-4.028 -1.657,-5.692 -0.678,-1.417 -1.318,-2.756 -1.312,-4.035 10e-4,-0.319 0.01,-0.645 0.026,-0.976 9.157,9.587 18.214,15.244 20.186,16.423" /><path
           inkscape:connector-curvature="0"
           id="path176"
           style="fill:#4c70b7;fill-opacity:1;fill-rule:nonzero;stroke:none"
           d="m 60.2939,195.2363 c 0,0 30.707,0.25 76.767,0.625 23.029,0.168 49.898,0.364 78.685,0.574 28.787,0.176 59.494,0.363 90.2,0.551 15.354,0.119 30.707,0.237 45.82,0.354 15.114,0.085 29.987,0.168 44.381,0.25 14.394,-0.07 28.307,-0.037 41.501,-0.186 6.598,-0.061 13.015,-0.12 19.222,-0.177 6.207,-0.083 12.205,-0.164 17.962,-0.241 11.515,-0.143 22.07,-0.406 31.427,-0.569 4.678,-0.091 9.056,-0.176 13.104,-0.254 4.048,-0.109 7.766,-0.208 11.125,-0.297 6.717,-0.191 11.994,-0.34 15.593,-0.442 3.599,-0.123 5.518,-0.188 5.518,-0.188 v -0.5 c 0,0 -1.919,-0.065 -5.518,-0.188 -3.599,-0.102 -8.876,-0.251 -15.593,-0.442 -3.359,-0.089 -7.077,-0.188 -11.125,-0.297 -4.048,-0.078 -8.426,-0.163 -13.104,-0.254 -9.357,-0.163 -19.912,-0.426 -31.427,-0.569 -5.757,-0.077 -11.755,-0.158 -17.962,-0.241 -6.207,-0.057 -12.624,-0.116 -19.222,-0.177 -13.194,-0.149 -27.107,-0.116 -41.501,-0.186 -14.394,0.082 -29.267,0.165 -44.381,0.25 -15.113,0.117 -30.466,0.235 -45.82,0.354 -30.706,0.187 -61.413,0.375 -90.2,0.551 -28.787,0.21 -55.656,0.406 -78.685,0.574 -46.06,0.375 -76.767,0.625 -76.767,0.625 z" /></g></g></g></svg>