<?xml version="1.0" encoding="UTF-8" standalone="no"?>
<svg
   xmlns:dc="http://purl.org/dc/elements/1.1/"
   xmlns:cc="http://creativecommons.org/ns#"
   xmlns:rdf="http://www.w3.org/1999/02/22-rdf-syntax-ns#"
   xmlns:svg="http://www.w3.org/2000/svg"
   xmlns="http://www.w3.org/2000/svg"
   xmlns:sodipodi="http://sodipodi.sourceforge.net/DTD/sodipodi-0.dtd"
   xmlns:inkscape="http://www.inkscape.org/namespaces/inkscape"
   width="263"
   height="263"
   viewBox="0 0 5495.5976 5495.648"
   version="1.1"
   id="svg4"
   sodipodi:docname="vendetta.svg"
   style="fill-rule:evenodd;image-rendering:optimizeQuality;shape-rendering:geometricPrecision;text-rendering:geometricPrecision"
   inkscape:version="0.92.4 (unknown)"
   inkscape:export-filename="/media/art/data/SourceCode/UBUCON/images/vendetta.png"
   inkscape:export-xdpi="96"
   inkscape:export-ydpi="96">
  <metadata
     id="metadata10">
    <rdf:RDF>
      <cc:Work
         rdf:about="">
        <dc:format>image/svg+xml</dc:format>
        <dc:type
           rdf:resource="http://purl.org/dc/dcmitype/StillImage" />
        <dc:title />
      </cc:Work>
    </rdf:RDF>
  </metadata>
  <defs
     id="defs8" />
  <sodipodi:namedview
     pagecolor="#ffffff"
     bordercolor="#666666"
     borderopacity="1"
     objecttolerance="10"
     gridtolerance="10"
     guidetolerance="10"
     inkscape:pageopacity="0"
     inkscape:pageshadow="2"
     inkscape:window-width="1366"
     inkscape:window-height="703"
     id="namedview6"
     showgrid="false"
     inkscape:zoom="0.944"
     inkscape:cx="-63.724723"
     inkscape:cy="125"
     inkscape:window-x="0"
     inkscape:window-y="0"
     inkscape:window-maximized="1"
     inkscape:current-layer="svg4" />
  <rect
     style="opacity:1;fill:#ffffff;fill-opacity:1;stroke:#000000;stroke-width:38.06877899;stroke-miterlimit:4;stroke-dasharray:none;stroke-opacity:1"
     id="rect812"
     width="5438.8779"
     height="5461.0137"
     x="47.48497"
     y="31.395464" />
  <path
     d="m 2734.7988,3193.324 c 81,0 147,118 190,176 62,82 102,127 150,216 h -653 c 20,-76 259,-392 313,-392 z m -2088.99999,-653 c 32,387 549.99999,1232 841.99999,1535 117,122 168,217 281,293 -20,-75 -65,-111 -110,-178 -46,-68 -83,-124 -125,-188 -88,-131 -159,-247 -235,-392 139,37 245,261 575,261 v -26 c -287,0 -659,-377 -810,-679 l -156.99999,-366 c 99.99999,27 81.99999,42 135.99999,125 38,59 67,97 105,156 358,565 268,476 1091,476 v 26 c -135,0 -56,-4 -78,52 283,66 889,67 1175,0 -22,-59 54,-52 -78,-52 v -26 c 871,0 717,108 1196,-632 54,-83 36,-99 136,-125 -27,57 -37,101 -69,166 -92,186 -189,453 -390,602 -66,49 -73,68 -146,115 -76,49 -255,161 -361,161 v 26 c 291,0 418,-182 575,-287 -26,111 -270,481 -350,590 -52,71 -96,103 -120,193 58,-39 296,-309 350,-381 212,-283 262,-321 451,-646 290,-498 223,-568 322,-775 -42,11 -435,396 -1086,-11 -269,-168 -276,51 64,171 100,35 314,98 448,101 -106,158 -205,254 -277,350 -38,50 -60,77 -89,120 -167,0 -448,-8 -573,-54 -96,-35 -213,-191 -263,-286 -446,104 -232,98 -653,0 -224,335 -293,340 -836,340 -46,-69 -128,-161 -190,-228 l -176,-242 c 188,-4 754,-162 690,-300 -74,-158 -111,125 -775,217 -269.99999,37 -426.99999,-162 -489.99999,-204 z m 3055.99999,1828 8,8 c -1,-1 -5,-10 -8,-8 z m -1933,26 c 3,3 8,-11 8,-8 0,1 3,-3 3,-3 z m 1541,-3944 c 156,-36 367,-131 575,-131 v 26 c -179,0 -784,301 -784,548 69,33 28,24 131,26 -34,147 -127,316 -131,470 81,-54 315,-371 496,-497 627,-436 965,-198 1228,-176 -271,-417 -308,-581 -810,-581 -160,0 -285,51 -392,104 -92,46 -258,134 -313,209 z m -2559.99999,261 c 226.99999,-19 558.99999,-255 1144.99999,187 255,192 285,279 425,437 35,40 17,34 75,55 -14,-169 -95,-316 -131,-470 466,-10 -413,-575 -653,-575 v -26 c 119,0 466,91 548,131 -54,-148 -508,-313 -679,-313 -332,40 -558.99999,148 -730.99999,575 z m 3917.99999,914 c 112,26 138,79 235,104 -53,-80 -105,-104 -183,-157 46,-68 96,-110 104,-209 -44,32 -181,318 -381,42 -51,-70 -72,-97 -134,-153 -107,-98 -255,-123 -451,-123 v 104 c 148,0 255,-5 377,94 311,252 65,350 -377,350 v 131 c 496,0 431,-131 679,-131 196,0 276,105 392,183 -29,-109 -88,-120 -201,-191 l -61,-44 z m -784,-340 c -220,0 -308,8 -470,131 -29,-21 -80,-21 145,-116 84,-35 133,-47 220,-67 v -78 c -652,15 -838,627 0,627 v -104 c -113,-3 -246,-52 -340,-52 v -26 c 153,0 581,145 914,-78 -87,-165 -272,-235 -470,-235 z m -3316.99999,575 c 216,-145 175,-183 443.99999,-183 154,0 141,131 627,131 v -131 c -113,0 -195,-14 -308,-32 -474.99999,-71 -87,-412 308,-412 v -104 c -637,0 -507,392 -783.99999,392 -92,0 -141,-133 -209,-183 31,132 70,145 131,235 -78,52 -129,77 -183,157 63,-17 71,-24 139,-70 46,-31 20,-13 44,-34 58,42 39,5 -105,104 -66,45 -81,47 -104,131 z m 575.99999,-347 c 18,52 472,146 657,118 54,-8 231,-32 255,-32 v 26 c -94,0 -227,50 -340,52 v 104 c 175,0 412,-54 528,-177 l 47,-58 c -36,-153 -65,-204 -193,-278 -73,-42 -280,-112 -382,-114 v 78 c 109,25 279,26 338,159 -141,-91 -207,-106 -442,-106 -293,0 -487,175 -468,227 z m 834,1105 c 0,111 8,131 78,183 -45,-195 -51,-199 111,-359 67,-66 105,-137 202,-163 0,322 -167,679 418,679 496,0 340,-498 340,-679 87,23 340,269 340,366 0,98 -17,49 -26,157 258,-189 -142,-491 -261,-757 -52,-115 -77,-195 -106,-338 -64,-316 37,-311 -76,-394 0,198 -26,284 -26,470 0,359 52,642 52,993 -191,128 -591,121 -570,-124 1,-14 30,-159 38,-199 l 38,-670 c -3,-144 -27,-143 -27,-469 -74,55 -53,21 -53,156 -1,333 -112,592 -305,844 -60,78 -164,189 -164,306 z m 601,1593 c 0,205 -25,182 -47,318 -19,119 37,660 152,831 h 131 c 73,-108 78,-169 102,-316 81,-510 53,-352 -4,-749 -24,-167 77,-164 112,-293 h -548 c 25,95 104,145 104,209 z m 522,-1254 c 129,-30 176,-7 209,-131 -55,-46 -132,-13 -168,15 -61,46 -38,-1 -41,116 z m -705,0 c -11,-128 -73,-154 -209,-157 12,149 75,126 209,157 z"
     id="path2"
     inkscape:connector-curvature="0" />
</svg>
