<?xml version="1.0" encoding="UTF-8" standalone="no"?>
<!-- Created with Inkscape (http://www.inkscape.org/) -->

<svg
   xmlns:dc="http://purl.org/dc/elements/1.1/"
   xmlns:cc="http://creativecommons.org/ns#"
   xmlns:rdf="http://www.w3.org/1999/02/22-rdf-syntax-ns#"
   xmlns:svg="http://www.w3.org/2000/svg"
   xmlns="http://www.w3.org/2000/svg"
   xmlns:sodipodi="http://sodipodi.sourceforge.net/DTD/sodipodi-0.dtd"
   xmlns:inkscape="http://www.inkscape.org/namespaces/inkscape"
   width="32"
   height="32"
   viewBox="0 0 8.4666665 8.4666669"
   version="1.1"
   id="svg821"
   inkscape:version="0.92.4 (unknown)"
   sodipodi:docname="notify.svg">
  <defs
     id="defs815" />
  <sodipodi:namedview
     id="base"
     pagecolor="#ffffff"
     bordercolor="#666666"
     borderopacity="1.0"
     inkscape:pageopacity="0.0"
     inkscape:pageshadow="2"
     inkscape:zoom="14.107713"
     inkscape:cx="13.820194"
     inkscape:cy="15.76699"
     inkscape:document-units="mm"
     inkscape:current-layer="layer1"
     showgrid="false"
     units="px"
     inkscape:window-width="1366"
     inkscape:window-height="703"
     inkscape:window-x="0"
     inkscape:window-y="0"
     inkscape:window-maximized="1" />
  <metadata
     id="metadata818">
    <rdf:RDF>
      <cc:Work
         rdf:about="">
        <dc:format>image/svg+xml</dc:format>
        <dc:type
           rdf:resource="http://purl.org/dc/dcmitype/StillImage" />
        <dc:title></dc:title>
      </cc:Work>
    </rdf:RDF>
  </metadata>
  <g
     inkscape:label="Ebene 1"
     inkscape:groupmode="layer"
     id="layer1"
     transform="translate(0,-288.53332)">
    <path
       style="opacity:0.98000004;fill:#1a1a1a;fill-opacity:1;stroke:none;stroke-width:0.27599999;stroke-miterlimit:4;stroke-dasharray:none;stroke-opacity:1"
       d="m 3.811926,290.7157 a 0.16879065,0.15941338 84.174088 0 0 -0.1304449,0.18265 0.16879065,0.15941338 84.174088 0 0 0.011666,0.0482 1.3784569,1.3034388 84.174088 0 0 -1.0061469,1.4766 1.3784569,1.3034388 84.174088 0 0 0.02286,0.1426 c -0.024225,0.40201 -0.084312,1.16002 -0.237957,2.00025 l 0.5330537,-0.0601 a 0.27194049,0.30007224 84.174088 0 0 -0.00356,0.072 0.27194049,0.30007224 84.174088 0 0 0.3257663,0.23999 0.27194049,0.30007224 84.174088 0 0 0.2710982,-0.30089 0.27194049,0.30007224 84.174088 0 0 -0.020207,-0.0759 l 2.4167091,-0.27256 c -0.6047473,-1.20177 -0.7093837,-1.96333 -0.7093837,-1.96333 l -0.00206,2.1e-4 a 1.3784569,1.3034388 84.174088 0 0 -0.00272,-0.047 1.3784569,1.3034388 84.174088 0 0 -1.2837377,-1.24399 0.16879065,0.15941338 84.174088 0 0 0.00181,-0.0485 0.16879065,0.15941338 84.174088 0 0 -0.1759557,-0.15138 0.16879065,0.15941338 84.174088 0 0 -0.010796,0.001 z"
       id="path1417"
       inkscape:connector-curvature="0" />
  </g>
</svg>
